<svg id="svg" version="1.1" width="400" height="468" viewBox="0 0 400 468" xmlns="http://www.w3.org/2000/svg" xmlns:xlink="http://www.w3.org/1999/xlink" ><g id="svgg"><path id="path0" d="" stroke="none" fill="#db8c46" fill-rule="evenodd"></path><path id="path1" d="" stroke="none" fill="#e08c41" fill-rule="evenodd"></path><path id="path2" d="" stroke="none" fill="#e4873c" fill-rule="evenodd"></path><path id="path3" d="M71.292 164.076 C 71.241 176.988,71.335 187.636,71.500 187.738 C 71.772 187.907,71.768 170.691,71.491 149.000 C 71.432 144.380,71.342 151.164,71.292 164.076 " stroke="none" fill="#e48944" fill-rule="evenodd"></path><path id="path4" d="M198.189 0.553 C 197.755 0.857,197.220 1.151,197.000 1.207 C 195.987 1.464,194.000 2.584,194.000 2.898 C 194.000 3.090,193.820 3.136,193.600 3.000 C 193.380 2.864,193.199 2.898,193.199 3.076 C 193.198 3.254,192.388 3.733,191.399 4.140 C 190.409 4.546,189.600 5.041,189.600 5.240 C 189.600 5.438,189.396 5.600,189.147 5.600 C 188.898 5.600,188.043 6.004,187.247 6.498 C 186.451 6.991,185.710 7.408,185.600 7.424 C 184.942 7.519,182.400 9.007,182.400 9.298 C 182.400 9.490,182.220 9.536,182.000 9.400 C 181.780 9.264,181.599 9.298,181.599 9.476 C 181.598 9.654,180.788 10.133,179.799 10.540 C 178.809 10.946,178.000 11.441,178.000 11.640 C 178.000 11.838,177.796 12.000,177.547 12.000 C 177.298 12.000,176.443 12.404,175.647 12.898 C 174.851 13.391,174.110 13.808,174.000 13.824 C 173.342 13.919,170.800 15.407,170.800 15.698 C 170.800 15.890,170.620 15.936,170.400 15.800 C 170.180 15.664,169.999 15.698,169.999 15.876 C 169.998 16.054,169.188 16.533,168.199 16.940 C 167.209 17.346,166.400 17.841,166.400 18.040 C 166.400 18.238,166.196 18.400,165.947 18.400 C 165.698 18.400,164.843 18.804,164.047 19.298 C 163.251 19.791,162.510 20.208,162.400 20.224 C 161.742 20.319,159.200 21.807,159.200 22.098 C 159.200 22.290,159.020 22.336,158.800 22.200 C 158.580 22.064,158.399 22.098,158.399 22.276 C 158.398 22.454,157.588 22.933,156.599 23.340 C 155.609 23.746,154.800 24.241,154.800 24.440 C 154.800 24.638,154.596 24.800,154.347 24.800 C 154.098 24.800,153.243 25.204,152.447 25.698 C 151.651 26.191,150.910 26.608,150.800 26.624 C 150.142 26.719,147.600 28.207,147.600 28.498 C 147.600 28.690,147.420 28.736,147.200 28.600 C 146.980 28.464,146.799 28.498,146.799 28.676 C 146.798 28.854,145.988 29.333,144.999 29.740 C 144.009 30.146,143.200 30.641,143.200 30.840 C 143.200 31.038,142.996 31.200,142.747 31.200 C 142.498 31.200,141.643 31.604,140.847 32.098 C 140.051 32.591,139.310 33.008,139.200 33.024 C 138.542 33.119,136.000 34.607,136.000 34.898 C 136.000 35.090,135.820 35.136,135.600 35.000 C 135.380 34.864,135.199 34.898,135.199 35.076 C 135.198 35.254,134.388 35.733,133.399 36.140 C 132.409 36.546,131.600 37.041,131.600 37.240 C 131.600 37.438,131.396 37.600,131.147 37.600 C 130.898 37.600,130.043 38.004,129.247 38.498 C 128.451 38.991,127.710 39.408,127.600 39.424 C 126.942 39.519,124.400 41.007,124.400 41.298 C 124.400 41.490,124.220 41.536,124.000 41.400 C 123.780 41.264,123.599 41.298,123.599 41.476 C 123.598 41.654,122.788 42.133,121.799 42.540 C 120.809 42.946,120.000 43.441,120.000 43.640 C 120.000 43.838,119.796 44.000,119.547 44.000 C 119.298 44.000,118.443 44.404,117.647 44.898 C 116.851 45.391,116.110 45.808,116.000 45.824 C 115.342 45.919,112.800 47.407,112.800 47.698 C 112.800 47.890,112.620 47.936,112.400 47.800 C 112.180 47.664,111.999 47.698,111.999 47.876 C 111.998 48.054,111.188 48.533,110.199 48.940 C 109.209 49.346,108.400 49.841,108.400 50.040 C 108.400 50.238,108.196 50.400,107.947 50.400 C 107.698 50.400,106.843 50.804,106.047 51.298 C 105.251 51.791,104.510 52.208,104.400 52.224 C 103.742 52.319,101.200 53.807,101.200 54.098 C 101.200 54.290,101.020 54.336,100.800 54.200 C 100.580 54.064,100.399 54.098,100.399 54.276 C 100.398 54.454,99.588 54.933,98.599 55.340 C 97.609 55.746,96.800 56.241,96.800 56.440 C 96.800 56.638,96.596 56.800,96.347 56.800 C 96.098 56.800,95.243 57.204,94.447 57.698 C 93.651 58.191,92.910 58.608,92.800 58.624 C 92.142 58.719,89.600 60.207,89.600 60.498 C 89.600 60.690,89.420 60.736,89.200 60.600 C 88.980 60.464,88.799 60.498,88.799 60.676 C 88.798 60.854,87.988 61.333,86.999 61.740 C 86.009 62.146,85.200 62.641,85.200 62.840 C 85.200 63.038,84.996 63.200,84.747 63.200 C 84.498 63.200,83.643 63.604,82.847 64.098 C 82.051 64.591,81.310 65.008,81.200 65.024 C 80.542 65.119,78.000 66.607,78.000 66.898 C 78.000 67.090,77.820 67.136,77.600 67.000 C 77.380 66.864,77.199 66.898,77.199 67.076 C 77.198 67.254,76.388 67.733,75.399 68.140 C 74.409 68.546,73.600 69.041,73.600 69.240 C 73.600 69.438,73.396 69.600,73.147 69.600 C 72.898 69.600,72.043 70.004,71.247 70.498 C 70.451 70.991,69.710 71.408,69.600 71.424 C 68.942 71.519,66.400 73.007,66.400 73.298 C 66.400 73.490,66.220 73.536,66.000 73.400 C 65.780 73.264,65.599 73.298,65.599 73.476 C 65.598 73.654,64.788 74.133,63.799 74.540 C 62.809 74.946,62.000 75.441,62.000 75.640 C 62.000 75.838,61.796 76.000,61.547 76.000 C 61.298 76.000,60.443 76.404,59.647 76.898 C 58.851 77.391,58.110 77.808,58.000 77.824 C 57.342 77.919,54.800 79.407,54.800 79.698 C 54.800 79.890,54.620 79.936,54.400 79.800 C 54.180 79.664,53.999 79.698,53.999 79.876 C 53.998 80.054,53.188 80.533,52.199 80.940 C 51.209 81.346,50.400 81.841,50.400 82.040 C 50.400 82.238,50.196 82.400,49.947 82.400 C 49.698 82.400,48.843 82.804,48.047 83.298 C 47.251 83.791,46.510 84.208,46.400 84.224 C 45.742 84.319,43.200 85.807,43.200 86.098 C 43.200 86.290,43.020 86.336,42.800 86.200 C 42.580 86.064,42.399 86.098,42.399 86.276 C 42.398 86.454,41.588 86.933,40.599 87.340 C 39.609 87.746,38.800 88.241,38.800 88.440 C 38.800 88.638,38.596 88.800,38.347 88.800 C 38.098 88.800,37.243 89.204,36.447 89.698 C 35.651 90.191,34.910 90.608,34.800 90.624 C 34.142 90.719,31.600 92.207,31.600 92.498 C 31.600 92.690,31.420 92.736,31.200 92.600 C 30.980 92.464,30.799 92.498,30.799 92.676 C 30.798 92.854,29.988 93.333,28.999 93.740 C 28.009 94.146,27.200 94.641,27.200 94.840 C 27.200 95.038,26.996 95.200,26.747 95.200 C 26.498 95.200,25.643 95.604,24.847 96.098 C 24.051 96.591,23.310 97.008,23.200 97.024 C 22.542 97.119,20.000 98.607,20.000 98.898 C 20.000 99.090,19.820 99.136,19.600 99.000 C 19.380 98.864,19.199 98.898,19.199 99.076 C 19.198 99.254,18.388 99.733,17.399 100.140 C 16.409 100.546,15.600 101.041,15.600 101.240 C 15.600 101.438,15.396 101.600,15.147 101.600 C 14.898 101.600,14.043 102.004,13.247 102.498 C 12.451 102.991,11.710 103.408,11.600 103.424 C 10.942 103.519,8.400 105.007,8.400 105.298 C 8.400 105.490,8.220 105.536,8.000 105.400 C 7.734 105.236,7.600 124.927,7.600 164.169 L 7.600 223.185 8.600 223.436 C 9.150 223.574,9.600 223.858,9.600 224.067 C 9.600 224.276,9.780 224.336,10.000 224.200 C 10.220 224.064,10.400 224.110,10.400 224.302 C 10.400 224.682,13.211 226.190,13.700 226.072 C 13.865 226.032,14.000 226.180,14.000 226.400 C 14.000 226.620,14.197 226.800,14.438 226.800 C 14.679 226.800,15.375 227.155,15.983 227.588 C 16.592 228.022,17.205 228.262,17.345 228.122 C 17.485 227.981,17.600 228.059,17.600 228.294 C 17.600 228.529,18.409 229.054,19.399 229.460 C 20.388 229.867,21.198 230.346,21.199 230.524 C 21.199 230.702,21.380 230.736,21.600 230.600 C 21.820 230.464,22.000 230.510,22.000 230.702 C 22.000 231.082,24.811 232.590,25.300 232.472 C 25.465 232.432,25.600 232.580,25.600 232.800 C 25.600 233.020,25.797 233.200,26.038 233.200 C 26.279 233.200,26.975 233.555,27.583 233.988 C 28.192 234.422,28.805 234.662,28.945 234.522 C 29.085 234.381,29.200 234.459,29.200 234.694 C 29.200 234.929,30.009 235.454,30.999 235.860 C 31.988 236.267,32.798 236.746,32.799 236.924 C 32.799 237.102,32.980 237.136,33.200 237.000 C 33.420 236.864,33.600 236.910,33.600 237.102 C 33.600 237.482,36.411 238.990,36.900 238.872 C 37.065 238.832,37.200 238.980,37.200 239.200 C 37.200 239.420,37.397 239.600,37.638 239.600 C 37.879 239.600,38.575 239.955,39.183 240.388 C 39.792 240.822,40.405 241.062,40.545 240.922 C 40.685 240.781,40.800 240.859,40.800 241.094 C 40.800 241.329,41.609 241.854,42.599 242.260 C 43.588 242.667,44.398 243.146,44.399 243.324 C 44.399 243.502,44.580 243.536,44.800 243.400 C 45.020 243.264,45.200 243.310,45.200 243.502 C 45.200 243.882,48.011 245.390,48.500 245.272 C 48.665 245.232,48.800 245.380,48.800 245.600 C 48.800 245.820,48.997 246.000,49.238 246.000 C 49.479 246.000,50.175 246.355,50.783 246.788 C 51.392 247.222,52.005 247.462,52.145 247.322 C 52.285 247.181,52.400 247.259,52.400 247.494 C 52.400 247.729,53.209 248.254,54.199 248.660 C 55.188 249.067,55.998 249.546,55.999 249.724 C 55.999 249.902,56.180 249.936,56.400 249.800 C 56.620 249.664,56.800 249.710,56.800 249.902 C 56.800 250.282,59.611 251.790,60.100 251.672 C 60.265 251.632,60.400 251.780,60.400 252.000 C 60.400 252.220,60.597 252.400,60.838 252.400 C 61.079 252.400,61.775 252.755,62.383 253.188 C 62.992 253.622,63.605 253.862,63.745 253.722 C 63.885 253.581,64.000 253.659,64.000 253.894 C 64.000 254.129,64.809 254.654,65.799 255.060 C 66.788 255.467,67.598 255.946,67.599 256.124 C 67.599 256.302,67.780 256.336,68.000 256.200 C 68.220 256.064,68.400 256.110,68.400 256.302 C 68.400 256.682,71.211 258.190,71.700 258.072 C 71.865 258.032,72.000 258.180,72.000 258.400 C 72.000 258.620,72.197 258.800,72.438 258.800 C 72.679 258.800,73.375 259.155,73.983 259.588 C 74.592 260.022,75.205 260.262,75.345 260.122 C 75.485 259.981,75.600 260.059,75.600 260.294 C 75.600 260.529,76.409 261.054,77.399 261.460 C 78.388 261.867,79.198 262.346,79.199 262.524 C 79.199 262.702,79.380 262.736,79.600 262.600 C 79.820 262.464,80.000 262.510,80.000 262.702 C 80.000 263.082,82.811 264.590,83.300 264.472 C 83.465 264.432,83.600 264.580,83.600 264.800 C 83.600 265.020,83.797 265.200,84.038 265.200 C 84.279 265.200,84.975 265.555,85.583 265.988 C 86.192 266.422,86.805 266.662,86.945 266.522 C 87.085 266.381,87.200 266.459,87.200 266.694 C 87.200 266.929,88.009 267.454,88.999 267.860 C 89.988 268.267,90.798 268.746,90.799 268.924 C 90.799 269.102,90.980 269.136,91.200 269.000 C 91.420 268.864,91.600 268.910,91.600 269.102 C 91.600 269.393,94.142 270.881,94.800 270.976 C 94.910 270.992,95.651 271.409,96.447 271.902 C 97.243 272.396,98.098 272.800,98.347 272.800 C 98.596 272.800,98.800 272.962,98.800 273.160 C 98.800 273.359,99.609 273.854,100.599 274.260 C 101.588 274.667,102.398 275.146,102.399 275.324 C 102.399 275.502,102.580 275.536,102.800 275.400 C 103.020 275.264,103.200 275.310,103.200 275.502 C 103.200 275.793,105.742 277.281,106.400 277.376 C 106.510 277.392,107.251 277.809,108.047 278.302 C 108.843 278.796,109.698 279.200,109.947 279.200 C 110.196 279.200,110.400 279.362,110.400 279.560 C 110.400 279.759,111.209 280.254,112.199 280.660 C 113.188 281.067,113.998 281.546,113.999 281.724 C 113.999 281.902,114.180 281.936,114.400 281.800 C 114.620 281.664,114.800 281.710,114.800 281.902 C 114.800 282.193,117.342 283.681,118.000 283.776 C 118.110 283.792,118.851 284.209,119.647 284.702 C 120.443 285.196,121.298 285.600,121.547 285.600 C 121.796 285.600,122.000 285.762,122.000 285.960 C 122.000 286.159,122.809 286.654,123.799 287.060 C 124.788 287.467,125.598 287.946,125.599 288.124 C 125.599 288.302,125.780 288.336,126.000 288.200 C 126.220 288.064,126.400 288.110,126.400 288.302 C 126.400 288.593,128.942 290.081,129.600 290.176 C 129.710 290.192,130.451 290.609,131.247 291.102 C 132.043 291.596,132.898 292.000,133.147 292.000 C 133.396 292.000,133.600 292.162,133.600 292.360 C 133.600 292.559,134.409 293.054,135.399 293.460 C 136.388 293.867,137.198 294.346,137.199 294.524 C 137.199 294.702,137.380 294.736,137.600 294.600 C 137.820 294.464,138.000 294.510,138.000 294.702 C 138.000 294.993,140.542 296.481,141.200 296.576 C 141.310 296.592,142.051 297.009,142.847 297.502 C 143.643 297.996,144.498 298.400,144.747 298.400 C 144.996 298.400,145.200 298.562,145.200 298.760 C 145.200 298.959,146.009 299.454,146.999 299.860 C 147.988 300.267,148.798 300.746,148.799 300.924 C 148.799 301.102,148.980 301.136,149.200 301.000 C 149.420 300.864,149.600 300.910,149.600 301.102 C 149.600 301.393,152.142 302.881,152.800 302.976 C 152.910 302.992,153.651 303.409,154.447 303.902 C 155.243 304.396,156.098 304.800,156.347 304.800 C 156.596 304.800,156.800 304.962,156.800 305.160 C 156.800 305.359,157.609 305.854,158.599 306.260 C 159.588 306.667,160.398 307.146,160.399 307.324 C 160.399 307.502,160.580 307.536,160.800 307.400 C 161.020 307.264,161.200 307.310,161.200 307.502 C 161.200 307.793,163.742 309.281,164.400 309.376 C 164.510 309.392,165.251 309.809,166.047 310.302 C 166.843 310.796,167.698 311.200,167.947 311.200 C 168.196 311.200,168.400 311.362,168.400 311.560 C 168.400 311.759,169.209 312.254,170.199 312.660 C 171.188 313.067,171.998 313.546,171.999 313.724 C 171.999 313.902,172.180 313.936,172.400 313.800 C 172.620 313.664,172.800 313.710,172.800 313.902 C 172.800 314.193,175.342 315.681,176.000 315.776 C 176.110 315.792,176.851 316.209,177.647 316.702 C 178.443 317.196,179.298 317.600,179.547 317.600 C 179.796 317.600,180.000 317.762,180.000 317.960 C 180.000 318.159,180.809 318.654,181.799 319.060 C 182.788 319.467,183.598 319.946,183.599 320.124 C 183.599 320.302,183.780 320.336,184.000 320.200 C 184.220 320.064,184.400 320.110,184.400 320.302 C 184.400 320.593,186.942 322.081,187.600 322.176 C 187.710 322.192,188.451 322.609,189.247 323.102 C 190.043 323.596,190.898 324.000,191.147 324.000 C 191.396 324.000,191.600 324.162,191.600 324.360 C 191.600 324.559,192.409 325.054,193.399 325.460 C 194.388 325.867,195.198 326.346,195.199 326.524 C 195.199 326.702,195.380 326.736,195.600 326.600 C 195.820 326.464,196.000 326.510,196.000 326.702 C 196.000 327.941,199.378 328.612,200.738 327.644 C 201.322 327.228,201.934 326.866,202.097 326.839 C 202.881 326.709,205.200 325.411,205.200 325.102 C 205.200 324.910,205.380 324.864,205.600 325.000 C 205.820 325.136,206.001 325.102,206.001 324.924 C 206.002 324.746,206.812 324.267,207.801 323.860 C 208.791 323.454,209.600 322.959,209.600 322.760 C 209.600 322.562,209.804 322.400,210.053 322.400 C 210.302 322.400,211.157 321.996,211.953 321.502 C 212.749 321.009,213.490 320.592,213.600 320.576 C 214.258 320.481,216.800 318.993,216.800 318.702 C 216.800 318.510,216.980 318.464,217.200 318.600 C 217.420 318.736,217.601 318.702,217.601 318.524 C 217.602 318.346,218.412 317.867,219.401 317.460 C 220.391 317.054,221.200 316.559,221.200 316.360 C 221.200 316.162,221.404 316.000,221.653 316.000 C 221.902 316.000,222.757 315.596,223.553 315.102 C 224.349 314.609,225.090 314.192,225.200 314.176 C 225.858 314.081,228.400 312.593,228.400 312.302 C 228.400 312.110,228.580 312.064,228.800 312.200 C 229.020 312.336,229.201 312.302,229.201 312.124 C 229.202 311.946,230.012 311.467,231.001 311.060 C 231.991 310.654,232.800 310.159,232.800 309.960 C 232.800 309.762,233.004 309.600,233.253 309.600 C 233.502 309.600,234.357 309.196,235.153 308.702 C 235.949 308.209,236.690 307.792,236.800 307.776 C 237.458 307.681,240.000 306.193,240.000 305.902 C 240.000 305.710,240.180 305.664,240.400 305.800 C 240.620 305.936,240.801 305.902,240.801 305.724 C 240.802 305.546,241.612 305.067,242.601 304.660 C 243.591 304.254,244.400 303.759,244.400 303.560 C 244.400 303.362,244.604 303.200,244.853 303.200 C 245.102 303.200,245.957 302.796,246.753 302.302 C 247.549 301.809,248.290 301.392,248.400 301.376 C 249.058 301.281,251.600 299.793,251.600 299.502 C 251.600 299.310,251.780 299.264,252.000 299.400 C 252.220 299.536,252.401 299.502,252.401 299.324 C 252.402 299.146,253.212 298.667,254.201 298.260 C 255.191 297.854,256.000 297.359,256.000 297.160 C 256.000 296.962,256.204 296.800,256.453 296.800 C 256.702 296.800,257.557 296.396,258.353 295.902 C 259.149 295.409,259.890 294.996,260.000 294.986 C 260.565 294.932,262.800 293.532,262.800 293.233 C 262.800 292.863,261.601 292.230,261.100 292.336 C 260.935 292.371,260.800 292.220,260.800 292.000 C 260.800 291.780,260.603 291.600,260.362 291.600 C 260.121 291.600,259.425 291.245,258.817 290.812 C 258.208 290.378,257.595 290.138,257.455 290.278 C 257.315 290.419,257.200 290.341,257.200 290.106 C 257.200 289.871,256.391 289.346,255.401 288.940 C 254.412 288.533,253.602 288.054,253.601 287.876 C 253.601 287.698,253.420 287.664,253.200 287.800 C 252.980 287.936,252.800 287.890,252.800 287.698 C 252.800 287.318,249.989 285.810,249.500 285.928 C 249.335 285.968,249.200 285.820,249.200 285.600 C 249.200 285.380,249.003 285.200,248.762 285.200 C 248.521 285.200,247.825 284.845,247.217 284.412 C 246.608 283.978,245.995 283.738,245.855 283.878 C 245.715 284.019,245.600 283.941,245.600 283.706 C 245.600 283.471,244.791 282.946,243.801 282.540 C 242.812 282.133,242.002 281.654,242.001 281.476 C 242.001 281.298,241.820 281.264,241.600 281.400 C 241.380 281.536,241.200 281.490,241.200 281.298 C 241.200 280.918,238.389 279.410,237.900 279.528 C 237.735 279.568,237.600 279.420,237.600 279.200 C 237.600 278.980,237.403 278.800,237.162 278.800 C 236.921 278.800,236.225 278.445,235.617 278.012 C 235.008 277.578,234.395 277.338,234.255 277.478 C 234.115 277.619,234.000 277.541,234.000 277.306 C 234.000 277.071,233.191 276.546,232.201 276.140 C 231.212 275.733,230.402 275.254,230.401 275.076 C 230.401 274.898,230.220 274.864,230.000 275.000 C 229.780 275.136,229.600 275.090,229.600 274.898 C 229.600 274.518,226.789 273.010,226.300 273.128 C 226.135 273.168,226.000 273.020,226.000 272.800 C 226.000 272.580,225.803 272.400,225.562 272.400 C 225.321 272.400,224.625 272.045,224.017 271.612 C 223.408 271.178,222.795 270.938,222.655 271.078 C 222.515 271.219,222.400 271.141,222.400 270.906 C 222.400 270.671,221.591 270.146,220.601 269.740 C 219.612 269.333,218.802 268.854,218.801 268.676 C 218.801 268.498,218.620 268.464,218.400 268.600 C 218.180 268.736,218.000 268.690,218.000 268.498 C 218.000 268.118,215.189 266.610,214.700 266.728 C 214.535 266.768,214.400 266.620,214.400 266.400 C 214.400 266.180,214.203 266.000,213.962 266.000 C 213.721 266.000,213.025 265.645,212.417 265.212 C 211.808 264.778,211.195 264.538,211.055 264.678 C 210.915 264.819,210.800 264.741,210.800 264.506 C 210.800 264.271,209.991 263.746,209.001 263.340 C 208.012 262.933,207.202 262.454,207.201 262.276 C 207.201 262.098,207.020 262.064,206.800 262.200 C 206.580 262.336,206.400 262.290,206.400 262.098 C 206.400 261.718,203.589 260.210,203.100 260.328 C 202.935 260.368,202.800 260.220,202.800 260.000 C 202.800 259.780,202.603 259.600,202.362 259.600 C 202.121 259.600,201.425 259.245,200.817 258.812 C 200.208 258.378,199.595 258.138,199.455 258.278 C 199.315 258.419,199.200 258.341,199.200 258.106 C 199.200 257.871,198.391 257.346,197.401 256.940 C 196.412 256.533,195.602 256.054,195.601 255.876 C 195.601 255.698,195.420 255.664,195.200 255.800 C 194.980 255.936,194.800 255.890,194.800 255.698 C 194.800 255.407,192.258 253.919,191.600 253.824 C 191.490 253.808,190.749 253.391,189.953 252.898 C 189.157 252.404,188.302 252.000,188.053 252.000 C 187.804 252.000,187.600 251.838,187.600 251.640 C 187.600 251.441,186.791 250.946,185.801 250.540 C 184.812 250.133,184.002 249.654,184.001 249.476 C 184.001 249.298,183.820 249.264,183.600 249.400 C 183.380 249.536,183.200 249.490,183.200 249.298 C 183.200 249.007,180.658 247.519,180.000 247.424 C 179.890 247.408,179.149 246.991,178.353 246.498 C 177.557 246.004,176.702 245.600,176.453 245.600 C 176.204 245.600,176.000 245.438,176.000 245.240 C 176.000 245.041,175.191 244.546,174.201 244.140 C 173.212 243.733,172.402 243.254,172.401 243.076 C 172.401 242.898,172.220 242.864,172.000 243.000 C 171.780 243.136,171.600 243.090,171.600 242.898 C 171.600 242.607,169.058 241.119,168.400 241.024 C 168.290 241.008,167.549 240.591,166.753 240.098 C 165.957 239.604,165.102 239.200,164.853 239.200 C 164.604 239.200,164.400 239.038,164.400 238.840 C 164.400 238.641,163.591 238.146,162.601 237.740 C 161.612 237.333,160.802 236.854,160.801 236.676 C 160.801 236.498,160.620 236.464,160.400 236.600 C 160.180 236.736,160.000 236.690,160.000 236.498 C 160.000 236.207,157.458 234.719,156.800 234.624 C 156.690 234.608,155.949 234.191,155.153 233.698 C 154.357 233.204,153.502 232.800,153.253 232.800 C 153.004 232.800,152.800 232.638,152.800 232.440 C 152.800 232.241,151.991 231.746,151.001 231.340 C 150.012 230.933,149.202 230.454,149.201 230.276 C 149.201 230.098,149.020 230.064,148.800 230.200 C 148.580 230.336,148.400 230.290,148.400 230.098 C 148.400 229.807,145.858 228.319,145.200 228.224 C 145.090 228.208,144.349 227.791,143.553 227.298 C 142.757 226.804,141.902 226.400,141.653 226.400 C 141.404 226.400,141.200 226.238,141.200 226.040 C 141.200 225.841,140.391 225.346,139.401 224.940 C 138.412 224.533,137.602 224.054,137.601 223.876 C 137.601 223.698,137.420 223.664,137.200 223.800 C 136.980 223.936,136.800 223.890,136.800 223.698 C 136.800 223.407,134.258 221.919,133.600 221.824 C 133.490 221.808,132.749 221.391,131.953 220.898 C 131.157 220.404,130.302 220.000,130.053 220.000 C 129.804 220.000,129.600 219.838,129.600 219.640 C 129.600 219.441,128.791 218.946,127.801 218.540 C 126.812 218.133,126.002 217.654,126.001 217.476 C 126.001 217.298,125.820 217.264,125.600 217.400 C 125.380 217.536,125.200 217.490,125.200 217.298 C 125.200 217.007,122.658 215.519,122.000 215.424 C 121.890 215.408,121.149 214.991,120.353 214.498 C 119.557 214.004,118.702 213.600,118.453 213.600 C 118.204 213.600,118.000 213.438,118.000 213.240 C 118.000 213.041,117.191 212.546,116.201 212.140 C 115.212 211.733,114.402 211.254,114.401 211.076 C 114.401 210.898,114.220 210.864,114.000 211.000 C 113.780 211.136,113.600 211.090,113.600 210.898 C 113.600 210.607,111.058 209.119,110.400 209.024 C 110.290 209.008,109.549 208.591,108.753 208.098 C 107.957 207.604,107.102 207.200,106.853 207.200 C 106.604 207.200,106.400 207.038,106.400 206.840 C 106.400 206.641,105.591 206.146,104.601 205.740 C 103.612 205.333,102.802 204.854,102.801 204.676 C 102.801 204.498,102.620 204.464,102.400 204.600 C 102.180 204.736,102.000 204.690,102.000 204.498 C 102.000 204.207,99.458 202.719,98.800 202.624 C 98.690 202.608,97.949 202.191,97.153 201.698 C 96.357 201.204,95.502 200.800,95.253 200.800 C 95.004 200.800,94.800 200.638,94.800 200.440 C 94.800 200.241,93.991 199.746,93.001 199.340 C 92.012 198.933,91.202 198.454,91.201 198.276 C 91.201 198.098,91.020 198.064,90.800 198.200 C 90.580 198.336,90.400 198.290,90.400 198.098 C 90.400 197.807,87.858 196.319,87.200 196.224 C 87.090 196.208,86.349 195.791,85.553 195.298 C 84.757 194.804,83.902 194.400,83.653 194.400 C 83.404 194.400,83.200 194.238,83.200 194.040 C 83.200 193.841,82.391 193.346,81.401 192.940 C 80.412 192.533,79.602 192.054,79.601 191.876 C 79.601 191.698,79.420 191.664,79.200 191.800 C 78.980 191.936,78.800 191.890,78.800 191.698 C 78.800 191.389,76.481 190.091,75.697 189.961 C 75.534 189.934,74.929 189.576,74.352 189.166 C 73.776 188.756,72.831 188.240,72.252 188.020 L 71.200 187.620 71.200 164.274 L 71.200 140.928 72.300 140.393 C 72.905 140.098,73.490 139.832,73.600 139.802 C 74.474 139.562,76.800 138.181,76.800 137.902 C 76.800 137.710,76.980 137.664,77.200 137.800 C 77.420 137.936,77.601 137.902,77.601 137.724 C 77.602 137.546,78.412 137.067,79.401 136.660 C 80.391 136.254,81.200 135.759,81.200 135.560 C 81.200 135.362,81.404 135.200,81.653 135.200 C 81.902 135.200,82.757 134.796,83.553 134.302 C 84.349 133.809,85.090 133.392,85.200 133.376 C 85.858 133.281,88.400 131.793,88.400 131.502 C 88.400 131.310,88.580 131.264,88.800 131.400 C 89.020 131.536,89.201 131.502,89.201 131.324 C 89.202 131.146,90.012 130.667,91.001 130.260 C 91.991 129.854,92.800 129.359,92.800 129.160 C 92.800 128.962,93.004 128.800,93.253 128.800 C 93.502 128.800,94.357 128.396,95.153 127.902 C 95.949 127.409,96.690 126.992,96.800 126.976 C 97.458 126.881,100.000 125.393,100.000 125.102 C 100.000 124.910,100.180 124.864,100.400 125.000 C 100.620 125.136,100.801 125.102,100.801 124.924 C 100.802 124.746,101.612 124.267,102.601 123.860 C 103.591 123.454,104.400 122.929,104.400 122.694 C 104.400 122.459,104.515 122.381,104.655 122.522 C 104.795 122.662,105.408 122.422,106.017 121.988 C 106.625 121.555,107.321 121.200,107.562 121.200 C 107.803 121.200,108.000 121.020,108.000 120.800 C 108.000 120.580,108.135 120.432,108.300 120.472 C 108.789 120.590,111.600 119.082,111.600 118.702 C 111.600 118.510,111.780 118.464,112.000 118.600 C 112.220 118.736,112.401 118.702,112.401 118.524 C 112.402 118.346,113.212 117.867,114.201 117.460 C 115.191 117.054,116.000 116.529,116.000 116.294 C 116.000 116.059,116.115 115.981,116.255 116.122 C 116.395 116.262,117.008 116.022,117.617 115.588 C 118.225 115.155,118.921 114.800,119.162 114.800 C 119.403 114.800,119.600 114.620,119.600 114.400 C 119.600 114.180,119.735 114.032,119.900 114.072 C 120.389 114.190,123.200 112.682,123.200 112.302 C 123.200 112.110,123.380 112.064,123.600 112.200 C 123.820 112.336,124.001 112.302,124.001 112.124 C 124.002 111.946,124.812 111.467,125.801 111.060 C 126.791 110.654,127.600 110.129,127.600 109.894 C 127.600 109.659,127.715 109.581,127.855 109.722 C 127.995 109.862,128.608 109.622,129.217 109.188 C 129.825 108.755,130.521 108.400,130.762 108.400 C 131.003 108.400,131.200 108.220,131.200 108.000 C 131.200 107.780,131.335 107.632,131.500 107.672 C 131.989 107.790,134.800 106.282,134.800 105.902 C 134.800 105.710,134.980 105.664,135.200 105.800 C 135.420 105.936,135.601 105.902,135.601 105.724 C 135.602 105.546,136.412 105.067,137.401 104.660 C 138.391 104.254,139.200 103.729,139.200 103.494 C 139.200 103.259,139.315 103.181,139.455 103.322 C 139.595 103.462,140.208 103.222,140.817 102.788 C 141.425 102.355,142.121 102.000,142.362 102.000 C 142.603 102.000,142.800 101.820,142.800 101.600 C 142.800 101.380,142.935 101.232,143.100 101.272 C 143.589 101.390,146.400 99.882,146.400 99.502 C 146.400 99.310,146.580 99.264,146.800 99.400 C 147.020 99.536,147.201 99.502,147.201 99.324 C 147.202 99.146,148.012 98.667,149.001 98.260 C 149.991 97.854,150.800 97.329,150.800 97.094 C 150.800 96.859,150.915 96.781,151.055 96.922 C 151.195 97.062,151.808 96.822,152.417 96.388 C 153.025 95.955,153.721 95.600,153.962 95.600 C 154.203 95.600,154.400 95.420,154.400 95.200 C 154.400 94.980,154.535 94.832,154.700 94.872 C 155.189 94.990,158.000 93.482,158.000 93.102 C 158.000 92.910,158.180 92.864,158.400 93.000 C 158.620 93.136,158.800 93.057,158.800 92.824 C 158.800 92.591,159.025 92.399,159.300 92.399 C 159.575 92.398,160.430 92.001,161.200 91.518 C 161.970 91.034,162.690 90.622,162.800 90.602 C 163.317 90.510,165.828 89.046,166.045 88.710 C 166.179 88.502,166.403 88.345,166.542 88.361 C 167.056 88.419,169.600 87.040,169.600 86.702 C 169.600 86.510,169.780 86.464,170.000 86.600 C 170.220 86.736,170.400 86.657,170.400 86.424 C 170.400 86.191,170.625 85.999,170.900 85.999 C 171.175 85.998,172.030 85.601,172.800 85.118 C 173.570 84.634,174.290 84.222,174.400 84.202 C 174.917 84.110,177.428 82.646,177.645 82.310 C 177.779 82.102,177.959 81.966,178.045 82.007 C 178.369 82.165,181.200 80.635,181.200 80.302 C 181.200 80.110,181.380 80.064,181.600 80.200 C 181.820 80.336,182.000 80.257,182.000 80.024 C 182.000 79.791,182.225 79.599,182.500 79.599 C 182.775 79.598,183.630 79.201,184.400 78.718 C 185.170 78.234,185.890 77.822,186.000 77.802 C 186.517 77.710,189.028 76.246,189.245 75.910 C 189.379 75.702,189.559 75.566,189.645 75.607 C 189.969 75.765,192.800 74.235,192.800 73.902 C 192.800 73.710,192.980 73.664,193.200 73.800 C 193.420 73.936,193.600 73.857,193.600 73.624 C 193.600 73.391,193.845 73.200,194.144 73.200 C 194.443 73.200,195.343 72.755,196.144 72.212 C 196.945 71.669,197.600 71.331,197.600 71.461 C 197.600 71.591,197.846 71.493,198.148 71.243 C 198.878 70.638,199.915 70.835,201.655 71.911 C 202.447 72.400,203.298 72.800,203.547 72.800 C 203.796 72.800,204.000 72.962,204.000 73.160 C 204.000 73.359,204.809 73.854,205.799 74.260 C 206.788 74.667,207.598 75.146,207.599 75.324 C 207.599 75.502,207.780 75.536,208.000 75.400 C 208.220 75.264,208.400 75.310,208.400 75.502 C 208.400 75.785,210.822 77.216,211.600 77.393 C 211.710 77.418,212.430 77.834,213.200 78.318 C 213.970 78.801,214.825 79.198,215.100 79.199 C 215.375 79.199,215.600 79.391,215.600 79.624 C 215.600 79.857,215.780 79.936,216.000 79.800 C 216.220 79.664,216.400 79.710,216.400 79.902 C 216.400 80.245,218.654 81.472,219.355 81.512 C 219.551 81.523,219.821 81.702,219.955 81.910 C 220.172 82.246,222.683 83.710,223.200 83.802 C 223.310 83.822,224.030 84.234,224.800 84.718 C 225.570 85.201,226.425 85.598,226.700 85.599 C 226.975 85.599,227.200 85.791,227.200 86.024 C 227.200 86.257,227.380 86.336,227.600 86.200 C 227.820 86.064,228.000 86.110,228.000 86.302 C 228.000 86.640,230.544 88.019,231.058 87.961 C 231.197 87.945,231.421 88.102,231.555 88.310 C 231.772 88.646,234.283 90.110,234.800 90.202 C 234.910 90.222,235.630 90.634,236.400 91.118 C 237.170 91.601,238.025 91.998,238.300 91.999 C 238.575 91.999,238.800 92.191,238.800 92.424 C 238.800 92.657,238.980 92.736,239.200 92.600 C 239.420 92.464,239.600 92.510,239.600 92.702 C 239.600 93.035,242.431 94.565,242.755 94.407 C 242.841 94.366,243.021 94.502,243.155 94.710 C 243.372 95.046,245.883 96.510,246.400 96.602 C 246.510 96.622,247.230 97.034,248.000 97.518 C 248.770 98.001,249.625 98.398,249.900 98.399 C 250.175 98.399,250.400 98.591,250.400 98.824 C 250.400 99.057,250.580 99.136,250.800 99.000 C 251.020 98.864,251.200 98.910,251.200 99.102 C 251.200 99.440,253.744 100.819,254.258 100.761 C 254.397 100.745,254.621 100.902,254.755 101.110 C 254.972 101.446,257.483 102.910,258.000 103.002 C 258.110 103.022,258.830 103.434,259.600 103.918 C 260.370 104.401,261.225 104.798,261.500 104.799 C 261.775 104.799,262.000 104.991,262.000 105.224 C 262.000 105.457,262.180 105.536,262.400 105.400 C 262.620 105.264,262.800 105.310,262.800 105.502 C 262.800 105.882,265.611 107.390,266.100 107.272 C 266.265 107.232,266.400 107.380,266.400 107.600 C 266.400 107.820,266.597 108.000,266.838 108.000 C 267.079 108.000,267.799 108.372,268.438 108.827 C 269.077 109.282,269.600 109.558,269.600 109.439 C 269.600 109.321,270.255 109.669,271.056 110.212 C 271.857 110.755,272.757 111.200,273.056 111.200 C 273.355 111.200,273.600 111.391,273.600 111.624 C 273.600 111.857,273.780 111.936,274.000 111.800 C 274.220 111.664,274.400 111.710,274.400 111.902 C 274.400 112.282,277.211 113.790,277.700 113.672 C 277.865 113.632,278.000 113.780,278.000 114.000 C 278.000 114.220,278.197 114.400,278.438 114.400 C 278.679 114.400,279.375 114.755,279.983 115.188 C 280.592 115.622,281.205 115.862,281.345 115.722 C 281.485 115.581,281.600 115.659,281.600 115.894 C 281.600 116.129,282.409 116.654,283.399 117.060 C 284.388 117.467,285.198 117.946,285.199 118.124 C 285.199 118.302,285.380 118.336,285.600 118.200 C 285.820 118.064,286.000 118.110,286.000 118.302 C 286.000 118.682,288.811 120.190,289.300 120.072 C 289.465 120.032,289.600 120.180,289.600 120.400 C 289.600 120.620,289.797 120.800,290.038 120.800 C 290.279 120.800,290.975 121.155,291.583 121.588 C 292.192 122.022,292.805 122.262,292.945 122.122 C 293.085 121.981,293.200 122.059,293.200 122.294 C 293.200 122.529,294.009 123.054,294.999 123.460 C 295.988 123.867,296.798 124.346,296.799 124.524 C 296.799 124.702,296.980 124.736,297.200 124.600 C 297.420 124.464,297.600 124.510,297.600 124.702 C 297.600 125.082,300.411 126.590,300.900 126.472 C 301.065 126.432,301.200 126.580,301.200 126.800 C 301.200 127.020,301.397 127.200,301.638 127.200 C 301.879 127.200,302.575 127.555,303.183 127.988 C 303.792 128.422,304.405 128.662,304.545 128.522 C 304.685 128.381,304.800 128.459,304.800 128.694 C 304.800 128.929,305.609 129.454,306.599 129.860 C 307.588 130.267,308.398 130.746,308.399 130.924 C 308.399 131.102,308.580 131.136,308.800 131.000 C 309.020 130.864,309.200 130.910,309.200 131.102 C 309.200 131.482,312.011 132.990,312.500 132.872 C 312.665 132.832,312.800 132.980,312.800 133.200 C 312.800 133.420,312.997 133.600,313.238 133.600 C 313.479 133.600,314.175 133.955,314.783 134.388 C 315.392 134.822,316.005 135.062,316.145 134.922 C 316.285 134.781,316.400 134.859,316.400 135.094 C 316.400 135.329,317.209 135.854,318.199 136.260 C 319.188 136.667,319.998 137.146,319.999 137.324 C 319.999 137.502,320.180 137.536,320.400 137.400 C 320.620 137.264,320.800 137.310,320.800 137.502 C 320.800 137.793,323.342 139.281,324.000 139.376 C 324.110 139.392,324.851 139.809,325.647 140.302 C 326.443 140.796,327.298 141.200,327.547 141.200 C 327.796 141.200,328.000 141.362,328.000 141.560 C 328.000 141.759,328.809 142.254,329.799 142.660 C 330.788 143.067,331.598 143.546,331.599 143.724 C 331.599 143.902,331.780 143.936,332.000 143.800 C 332.220 143.664,332.400 143.710,332.400 143.902 C 332.400 144.193,334.942 145.681,335.600 145.776 C 335.710 145.792,336.451 146.209,337.247 146.702 C 338.043 147.196,338.898 147.600,339.147 147.600 C 339.396 147.600,339.600 147.762,339.600 147.960 C 339.600 148.159,340.409 148.654,341.399 149.060 C 342.388 149.467,343.198 149.946,343.199 150.124 C 343.199 150.302,343.380 150.336,343.600 150.200 C 343.820 150.064,344.000 150.110,344.000 150.302 C 344.000 150.593,346.542 152.081,347.200 152.176 C 347.310 152.192,348.051 152.609,348.847 153.102 C 349.643 153.596,350.498 154.000,350.747 154.000 C 350.996 154.000,351.200 154.162,351.200 154.360 C 351.200 154.559,352.009 155.054,352.999 155.460 C 353.988 155.867,354.798 156.346,354.799 156.524 C 354.799 156.702,354.980 156.736,355.200 156.600 C 355.420 156.464,355.600 156.510,355.600 156.702 C 355.600 156.993,358.142 158.481,358.800 158.576 C 358.910 158.592,359.651 159.009,360.447 159.502 C 361.243 159.996,362.098 160.400,362.347 160.400 C 362.596 160.400,362.800 160.562,362.800 160.760 C 362.800 160.959,363.609 161.454,364.599 161.860 C 365.588 162.267,366.398 162.746,366.399 162.924 C 366.399 163.102,366.580 163.136,366.800 163.000 C 367.020 162.864,367.200 162.910,367.200 163.102 C 367.200 163.393,369.742 164.881,370.400 164.976 C 370.510 164.992,371.251 165.409,372.047 165.902 C 372.843 166.396,373.698 166.800,373.947 166.800 C 374.196 166.800,374.400 166.962,374.400 167.160 C 374.400 167.359,375.209 167.854,376.199 168.260 C 377.188 168.667,377.998 169.146,377.999 169.324 C 377.999 169.502,378.180 169.536,378.400 169.400 C 378.620 169.264,378.800 169.310,378.800 169.502 C 378.800 169.793,381.342 171.281,382.000 171.376 C 382.110 171.392,382.851 171.809,383.647 172.302 C 384.443 172.796,385.298 173.200,385.547 173.200 C 385.796 173.200,386.000 173.353,386.000 173.539 C 386.000 173.726,386.765 174.216,387.700 174.628 C 388.635 175.041,389.532 175.563,389.694 175.789 C 389.883 176.053,389.992 176.057,390.000 175.800 C 390.007 175.580,390.187 175.670,390.400 176.000 C 390.652 176.390,390.790 164.228,390.794 141.271 C 390.799 110.396,390.724 105.867,390.200 105.343 C 389.870 105.013,389.597 104.891,389.594 105.071 C 389.591 105.252,389.456 105.200,389.294 104.956 C 389.029 104.556,386.494 103.062,386.000 103.014 C 385.890 103.004,385.149 102.591,384.353 102.098 C 383.557 101.604,382.702 101.200,382.453 101.200 C 382.204 101.200,382.000 101.038,382.000 100.840 C 382.000 100.641,381.191 100.146,380.201 99.740 C 379.212 99.333,378.402 98.854,378.401 98.676 C 378.401 98.498,378.220 98.464,378.000 98.600 C 377.780 98.736,377.600 98.690,377.600 98.498 C 377.600 98.207,375.058 96.719,374.400 96.624 C 374.290 96.608,373.549 96.191,372.753 95.698 C 371.957 95.204,371.102 94.800,370.853 94.800 C 370.604 94.800,370.400 94.638,370.400 94.440 C 370.400 94.241,369.591 93.746,368.601 93.340 C 367.612 92.933,366.802 92.454,366.801 92.276 C 366.801 92.098,366.620 92.064,366.400 92.200 C 366.180 92.336,366.000 92.290,366.000 92.098 C 366.000 91.807,363.458 90.319,362.800 90.224 C 362.690 90.208,361.949 89.791,361.153 89.298 C 360.357 88.804,359.502 88.400,359.253 88.400 C 359.004 88.400,358.800 88.238,358.800 88.040 C 358.800 87.841,357.991 87.346,357.001 86.940 C 356.012 86.533,355.202 86.054,355.201 85.876 C 355.201 85.698,355.020 85.664,354.800 85.800 C 354.580 85.936,354.400 85.890,354.400 85.698 C 354.400 85.407,351.858 83.919,351.200 83.824 C 351.090 83.808,350.349 83.391,349.553 82.898 C 348.757 82.404,347.902 82.000,347.653 82.000 C 347.404 82.000,347.200 81.838,347.200 81.640 C 347.200 81.441,346.391 80.946,345.401 80.540 C 344.412 80.133,343.602 79.654,343.601 79.476 C 343.601 79.298,343.420 79.264,343.200 79.400 C 342.980 79.536,342.800 79.490,342.800 79.298 C 342.800 79.007,340.258 77.519,339.600 77.424 C 339.490 77.408,338.749 76.991,337.953 76.498 C 337.157 76.004,336.302 75.600,336.053 75.600 C 335.804 75.600,335.600 75.438,335.600 75.240 C 335.600 75.041,334.791 74.546,333.801 74.140 C 332.812 73.733,332.002 73.254,332.001 73.076 C 332.001 72.898,331.820 72.864,331.600 73.000 C 331.380 73.136,331.200 73.090,331.200 72.898 C 331.200 72.607,328.658 71.119,328.000 71.024 C 327.890 71.008,327.149 70.591,326.353 70.098 C 325.557 69.604,324.702 69.200,324.453 69.200 C 324.204 69.200,324.000 69.038,324.000 68.840 C 324.000 68.641,323.191 68.146,322.201 67.740 C 321.212 67.333,320.402 66.854,320.401 66.676 C 320.401 66.498,320.220 66.464,320.000 66.600 C 319.780 66.736,319.600 66.690,319.600 66.498 C 319.600 66.207,317.058 64.719,316.400 64.624 C 316.290 64.608,315.549 64.191,314.753 63.698 C 313.957 63.204,313.102 62.800,312.853 62.800 C 312.604 62.800,312.400 62.638,312.400 62.440 C 312.400 62.241,311.591 61.746,310.601 61.340 C 309.612 60.933,308.802 60.454,308.801 60.276 C 308.801 60.098,308.620 60.064,308.400 60.200 C 308.180 60.336,308.000 60.290,308.000 60.098 C 308.000 59.807,305.458 58.319,304.800 58.224 C 304.690 58.208,303.949 57.791,303.153 57.298 C 302.357 56.804,301.502 56.400,301.253 56.400 C 301.004 56.400,300.800 56.238,300.800 56.040 C 300.800 55.841,299.991 55.346,299.001 54.940 C 298.012 54.533,297.202 54.054,297.201 53.876 C 297.201 53.698,297.020 53.664,296.800 53.800 C 296.580 53.936,296.400 53.890,296.400 53.698 C 296.400 53.407,293.858 51.919,293.200 51.824 C 293.090 51.808,292.349 51.391,291.553 50.898 C 290.757 50.404,289.902 50.000,289.653 50.000 C 289.404 50.000,289.200 49.838,289.200 49.640 C 289.200 49.441,288.391 48.946,287.401 48.540 C 286.412 48.133,285.602 47.654,285.601 47.476 C 285.601 47.298,285.420 47.264,285.200 47.400 C 284.980 47.536,284.800 47.490,284.800 47.298 C 284.800 47.007,282.258 45.519,281.600 45.424 C 281.490 45.408,280.749 44.991,279.953 44.498 C 279.157 44.004,278.302 43.600,278.053 43.600 C 277.804 43.600,277.600 43.438,277.600 43.240 C 277.600 43.041,276.791 42.546,275.801 42.140 C 274.812 41.733,274.002 41.254,274.001 41.076 C 274.001 40.898,273.820 40.864,273.600 41.000 C 273.380 41.136,273.200 41.090,273.200 40.898 C 273.200 40.607,270.658 39.119,270.000 39.024 C 269.890 39.008,269.149 38.591,268.353 38.098 C 267.557 37.604,266.702 37.200,266.453 37.200 C 266.204 37.200,266.000 37.038,266.000 36.840 C 266.000 36.641,265.191 36.146,264.201 35.740 C 263.212 35.333,262.402 34.854,262.401 34.676 C 262.401 34.498,262.220 34.464,262.000 34.600 C 261.780 34.736,261.600 34.690,261.600 34.498 C 261.600 34.207,259.058 32.719,258.400 32.624 C 258.290 32.608,257.549 32.191,256.753 31.698 C 255.957 31.204,255.102 30.800,254.853 30.800 C 254.604 30.800,254.400 30.656,254.400 30.480 C 254.400 30.166,250.750 28.238,250.445 28.391 C 250.359 28.433,250.179 28.298,250.045 28.090 C 249.818 27.740,247.254 26.258,246.800 26.214 C 246.690 26.204,245.949 25.791,245.153 25.298 C 244.357 24.804,243.502 24.400,243.253 24.400 C 243.004 24.400,242.800 24.238,242.800 24.040 C 242.800 23.841,241.991 23.346,241.001 22.940 C 240.012 22.533,239.202 22.054,239.201 21.876 C 239.201 21.698,239.020 21.664,238.800 21.800 C 238.580 21.936,238.400 21.890,238.400 21.698 C 238.400 21.407,235.858 19.919,235.200 19.824 C 235.090 19.808,234.349 19.391,233.553 18.898 C 232.757 18.404,231.902 18.000,231.653 18.000 C 231.404 18.000,231.200 17.838,231.200 17.640 C 231.200 17.441,230.391 16.946,229.401 16.540 C 228.412 16.133,227.602 15.654,227.601 15.476 C 227.601 15.298,227.420 15.264,227.200 15.400 C 226.980 15.536,226.800 15.490,226.800 15.298 C 226.800 15.015,224.378 13.584,223.600 13.407 C 223.490 13.382,222.770 12.966,222.000 12.482 C 221.230 11.999,220.375 11.602,220.100 11.601 C 219.825 11.601,219.600 11.409,219.600 11.176 C 219.600 10.943,219.420 10.864,219.200 11.000 C 218.980 11.136,218.800 11.090,218.800 10.898 C 218.800 10.565,215.969 9.035,215.645 9.193 C 215.559 9.234,215.379 9.098,215.245 8.890 C 215.028 8.554,212.517 7.090,212.000 6.998 C 211.890 6.978,211.170 6.566,210.400 6.082 C 209.630 5.599,208.775 5.202,208.500 5.201 C 208.225 5.201,208.000 5.009,208.000 4.776 C 208.000 4.543,207.820 4.464,207.600 4.600 C 207.380 4.736,207.200 4.690,207.200 4.498 C 207.200 4.165,204.369 2.635,204.045 2.793 C 203.959 2.834,203.779 2.698,203.645 2.490 C 203.396 2.105,200.819 0.647,200.333 0.617 C 200.187 0.608,199.932 0.465,199.767 0.300 C 199.347 -0.120,199.091 -0.079,198.189 0.553 M198.189 128.953 C 197.755 129.257,197.220 129.551,197.000 129.607 C 195.987 129.864,194.000 130.984,194.000 131.298 C 194.000 131.490,193.820 131.536,193.600 131.400 C 193.380 131.264,193.199 131.298,193.199 131.476 C 193.198 131.654,192.388 132.133,191.399 132.540 C 190.409 132.946,189.600 133.441,189.600 133.640 C 189.600 133.838,189.396 134.000,189.147 134.000 C 188.898 134.000,188.043 134.404,187.247 134.898 C 186.451 135.391,185.710 135.808,185.600 135.824 C 184.942 135.919,182.400 137.407,182.400 137.698 C 182.400 137.890,182.220 137.936,182.000 137.800 C 181.780 137.664,181.599 137.698,181.599 137.876 C 181.598 138.054,180.788 138.533,179.799 138.940 C 178.809 139.346,178.000 139.841,178.000 140.040 C 178.000 140.238,177.796 140.400,177.547 140.400 C 177.298 140.400,176.443 140.804,175.647 141.298 C 174.851 141.791,174.110 142.208,174.000 142.224 C 173.342 142.319,170.800 143.807,170.800 144.098 C 170.800 144.290,170.620 144.336,170.400 144.200 C 170.180 144.064,169.999 144.098,169.999 144.276 C 169.998 144.454,169.188 144.933,168.199 145.340 C 167.209 145.746,166.400 146.241,166.400 146.440 C 166.400 146.638,166.196 146.800,165.947 146.800 C 165.698 146.800,164.843 147.204,164.047 147.698 C 163.251 148.191,162.510 148.608,162.400 148.624 C 161.742 148.719,159.200 150.207,159.200 150.498 C 159.200 150.690,159.020 150.736,158.800 150.600 C 158.580 150.464,158.399 150.498,158.399 150.676 C 158.398 150.854,157.588 151.333,156.599 151.740 C 155.609 152.146,154.800 152.641,154.800 152.840 C 154.800 153.038,154.596 153.200,154.347 153.200 C 154.098 153.200,153.243 153.604,152.447 154.098 C 151.651 154.591,150.910 155.008,150.800 155.024 C 150.142 155.119,147.600 156.607,147.600 156.898 C 147.600 157.090,147.420 157.136,147.200 157.000 C 146.980 156.864,146.799 156.898,146.799 157.076 C 146.798 157.254,145.988 157.733,144.999 158.140 C 144.009 158.546,143.200 159.041,143.200 159.240 C 143.200 159.438,142.996 159.600,142.747 159.600 C 142.498 159.600,141.643 160.004,140.847 160.498 C 140.051 160.991,139.310 161.408,139.200 161.424 C 138.542 161.519,136.000 163.007,136.000 163.298 C 136.000 163.490,135.775 163.533,135.500 163.393 C 135.225 163.253,135.425 163.513,135.944 163.970 C 136.464 164.426,137.139 164.800,137.444 164.800 C 137.750 164.800,138.000 164.991,138.000 165.224 C 138.000 165.457,138.180 165.536,138.400 165.400 C 138.620 165.264,138.800 165.310,138.800 165.502 C 138.800 165.793,141.342 167.281,142.000 167.376 C 142.110 167.392,142.851 167.809,143.647 168.302 C 144.443 168.796,145.298 169.200,145.547 169.200 C 145.796 169.200,146.000 169.362,146.000 169.560 C 146.000 169.759,146.809 170.254,147.799 170.660 C 148.788 171.067,149.598 171.546,149.599 171.724 C 149.599 171.902,149.780 171.936,150.000 171.800 C 150.220 171.664,150.400 171.710,150.400 171.902 C 150.400 172.193,152.942 173.681,153.600 173.776 C 153.710 173.792,154.451 174.209,155.247 174.702 C 156.043 175.196,156.898 175.600,157.147 175.600 C 157.396 175.600,157.600 175.762,157.600 175.960 C 157.600 176.159,158.409 176.654,159.399 177.060 C 160.388 177.467,161.198 177.946,161.199 178.124 C 161.199 178.302,161.380 178.336,161.600 178.200 C 161.820 178.064,162.000 178.110,162.000 178.302 C 162.000 178.593,164.542 180.081,165.200 180.176 C 165.310 180.192,166.051 180.609,166.847 181.102 C 167.643 181.596,168.498 182.000,168.747 182.000 C 168.996 182.000,169.200 182.144,169.200 182.320 C 169.200 182.637,172.568 184.419,173.057 184.362 C 173.197 184.345,173.421 184.502,173.555 184.710 C 173.772 185.046,176.283 186.510,176.800 186.602 C 176.910 186.622,177.630 187.034,178.400 187.518 C 179.170 188.001,180.025 188.398,180.300 188.399 C 180.575 188.399,180.800 188.591,180.800 188.824 C 180.800 189.057,180.980 189.136,181.200 189.000 C 181.420 188.864,181.600 188.910,181.600 189.102 C 181.600 189.440,184.144 190.819,184.658 190.761 C 184.797 190.745,185.021 190.902,185.155 191.110 C 185.372 191.446,187.883 192.910,188.400 193.002 C 188.510 193.022,189.230 193.434,190.000 193.918 C 190.770 194.401,191.625 194.798,191.900 194.799 C 192.175 194.799,192.400 194.991,192.400 195.224 C 192.400 195.457,192.580 195.536,192.800 195.400 C 193.020 195.264,193.200 195.310,193.200 195.502 C 193.200 195.845,195.454 197.072,196.155 197.112 C 196.351 197.123,196.621 197.302,196.755 197.510 C 196.972 197.846,199.483 199.310,200.000 199.402 C 200.110 199.422,200.830 199.834,201.600 200.318 C 202.370 200.801,203.225 201.198,203.500 201.199 C 203.775 201.199,204.000 201.391,204.000 201.624 C 204.000 201.857,204.180 201.936,204.400 201.800 C 204.620 201.664,204.800 201.710,204.800 201.902 C 204.800 202.245,207.054 203.472,207.755 203.512 C 207.951 203.523,208.221 203.702,208.355 203.910 C 208.572 204.246,211.083 205.710,211.600 205.802 C 211.710 205.822,212.430 206.234,213.200 206.718 C 213.970 207.201,214.825 207.598,215.100 207.599 C 215.375 207.599,215.600 207.791,215.600 208.024 C 215.600 208.257,215.780 208.336,216.000 208.200 C 216.220 208.064,216.400 208.110,216.400 208.302 C 216.400 208.645,218.654 209.872,219.355 209.912 C 219.551 209.923,219.821 210.102,219.955 210.310 C 220.172 210.646,222.683 212.110,223.200 212.202 C 223.310 212.222,224.030 212.634,224.800 213.118 C 225.570 213.601,226.425 213.998,226.700 213.999 C 226.975 213.999,227.200 214.191,227.200 214.424 C 227.200 214.657,227.380 214.736,227.600 214.600 C 227.820 214.464,228.000 214.510,228.000 214.702 C 228.000 215.082,230.811 216.590,231.300 216.472 C 231.465 216.432,231.600 216.580,231.600 216.800 C 231.600 217.020,231.797 217.200,232.038 217.200 C 232.279 217.200,232.975 217.555,233.583 217.988 C 234.192 218.422,234.805 218.662,234.945 218.522 C 235.085 218.381,235.200 218.459,235.200 218.694 C 235.200 218.929,236.009 219.454,236.999 219.860 C 237.988 220.267,238.798 220.746,238.799 220.924 C 238.799 221.102,238.980 221.136,239.200 221.000 C 239.420 220.864,239.600 220.910,239.600 221.102 C 239.600 221.482,242.411 222.990,242.900 222.872 C 243.065 222.832,243.200 222.980,243.200 223.200 C 243.200 223.420,243.397 223.600,243.638 223.600 C 243.879 223.600,244.575 223.955,245.183 224.388 C 245.792 224.822,246.405 225.062,246.545 224.922 C 246.685 224.781,246.800 224.859,246.800 225.094 C 246.800 225.329,247.609 225.854,248.599 226.260 C 249.588 226.667,250.398 227.146,250.399 227.324 C 250.399 227.502,250.580 227.536,250.800 227.400 C 251.020 227.264,251.200 227.310,251.200 227.502 C 251.200 227.882,254.011 229.390,254.500 229.272 C 254.665 229.232,254.800 229.380,254.800 229.600 C 254.800 229.820,254.997 230.000,255.238 230.000 C 255.479 230.000,256.175 230.355,256.783 230.788 C 257.392 231.222,258.005 231.462,258.145 231.322 C 258.285 231.181,258.400 231.259,258.400 231.494 C 258.400 231.729,259.209 232.254,260.199 232.660 C 261.188 233.067,261.998 233.546,261.999 233.724 C 261.999 233.902,262.180 233.936,262.400 233.800 C 262.620 233.664,262.800 233.710,262.800 233.902 C 262.800 234.282,265.611 235.790,266.100 235.672 C 266.265 235.632,266.400 235.780,266.400 236.000 C 266.400 236.220,266.597 236.400,266.838 236.400 C 267.079 236.400,267.775 236.755,268.383 237.188 C 268.992 237.622,269.605 237.862,269.745 237.722 C 269.885 237.581,270.000 237.659,270.000 237.894 C 270.000 238.129,270.809 238.654,271.799 239.060 C 272.788 239.467,273.598 239.946,273.599 240.124 C 273.599 240.302,273.780 240.336,274.000 240.200 C 274.220 240.064,274.400 240.110,274.400 240.302 C 274.400 240.682,277.211 242.190,277.700 242.072 C 277.865 242.032,278.000 242.180,278.000 242.400 C 278.000 242.620,278.197 242.800,278.438 242.800 C 278.679 242.800,279.375 243.155,279.983 243.588 C 280.592 244.022,281.205 244.262,281.345 244.122 C 281.485 243.981,281.600 244.059,281.600 244.294 C 281.600 244.529,282.409 245.054,283.399 245.460 C 284.388 245.867,285.198 246.346,285.199 246.524 C 285.199 246.702,285.380 246.736,285.600 246.600 C 285.820 246.464,286.000 246.510,286.000 246.702 C 286.000 246.993,288.542 248.481,289.200 248.576 C 289.310 248.592,290.051 249.009,290.847 249.502 C 291.643 249.996,292.498 250.400,292.747 250.400 C 292.996 250.400,293.200 250.562,293.200 250.760 C 293.200 250.959,294.009 251.454,294.999 251.860 C 295.988 252.267,296.798 252.746,296.799 252.924 C 296.799 253.102,296.980 253.136,297.200 253.000 C 297.420 252.864,297.600 252.910,297.600 253.102 C 297.600 253.393,300.142 254.881,300.800 254.976 C 300.910 254.992,301.651 255.409,302.447 255.902 C 303.243 256.396,304.098 256.800,304.347 256.800 C 304.596 256.800,304.800 256.962,304.800 257.160 C 304.800 257.359,305.609 257.854,306.599 258.260 C 307.588 258.667,308.398 259.146,308.399 259.324 C 308.399 259.502,308.580 259.536,308.800 259.400 C 309.020 259.264,309.200 259.310,309.200 259.502 C 309.200 259.793,311.742 261.281,312.400 261.376 C 312.510 261.392,313.251 261.809,314.047 262.302 C 314.843 262.796,315.698 263.200,315.947 263.200 C 316.196 263.200,316.400 263.362,316.400 263.560 C 316.400 263.759,317.209 264.254,318.199 264.660 C 319.188 265.067,319.998 265.546,319.999 265.724 C 319.999 265.902,320.180 265.936,320.400 265.800 C 320.620 265.664,320.800 265.710,320.800 265.902 C 320.800 266.191,323.308 267.663,324.000 267.781 C 324.110 267.800,324.785 268.166,325.500 268.594 L 326.800 269.372 326.800 292.663 C 326.800 315.739,326.765 316.431,325.600 316.620 C 324.919 316.731,322.400 318.209,322.400 318.498 C 322.400 318.690,322.220 318.736,322.000 318.600 C 321.780 318.464,321.599 318.498,321.599 318.676 C 321.598 318.854,320.788 319.333,319.799 319.740 C 318.809 320.146,318.000 320.641,318.000 320.840 C 318.000 321.038,317.796 321.200,317.547 321.200 C 317.298 321.200,316.443 321.604,315.647 322.098 C 314.851 322.591,314.110 323.008,314.000 323.024 C 313.342 323.119,310.800 324.607,310.800 324.898 C 310.800 325.090,310.620 325.136,310.400 325.000 C 310.180 324.864,309.999 324.898,309.999 325.076 C 309.998 325.254,309.188 325.733,308.199 326.140 C 307.209 326.546,306.400 327.041,306.400 327.240 C 306.400 327.438,306.196 327.600,305.947 327.600 C 305.698 327.600,304.843 328.004,304.047 328.498 C 303.251 328.991,302.510 329.408,302.400 329.424 C 301.742 329.519,299.200 331.007,299.200 331.298 C 299.200 331.490,299.020 331.536,298.800 331.400 C 298.580 331.264,298.399 331.298,298.399 331.476 C 298.398 331.654,297.588 332.133,296.599 332.540 C 295.609 332.946,294.800 333.441,294.800 333.640 C 294.800 333.838,294.596 334.000,294.347 334.000 C 294.098 334.000,293.243 334.404,292.447 334.898 C 291.651 335.391,290.910 335.808,290.800 335.824 C 290.142 335.919,287.600 337.407,287.600 337.698 C 287.600 337.890,287.420 337.936,287.200 337.800 C 286.980 337.664,286.799 337.698,286.799 337.876 C 286.798 338.054,285.988 338.533,284.999 338.940 C 284.009 339.346,283.200 339.841,283.200 340.040 C 283.200 340.238,282.996 340.400,282.747 340.400 C 282.498 340.400,281.643 340.804,280.847 341.298 C 280.051 341.791,279.310 342.208,279.200 342.224 C 278.542 342.319,276.000 343.807,276.000 344.098 C 276.000 344.290,275.820 344.336,275.600 344.200 C 275.380 344.064,275.199 344.098,275.199 344.276 C 275.198 344.454,274.388 344.933,273.399 345.340 C 272.409 345.746,271.600 346.241,271.600 346.440 C 271.600 346.638,271.396 346.800,271.147 346.800 C 270.898 346.800,270.043 347.204,269.247 347.698 C 268.451 348.191,267.710 348.608,267.600 348.624 C 266.942 348.719,264.400 350.207,264.400 350.498 C 264.400 350.690,264.220 350.736,264.000 350.600 C 263.780 350.464,263.599 350.498,263.599 350.676 C 263.598 350.854,262.788 351.333,261.799 351.740 C 260.809 352.146,260.000 352.641,260.000 352.840 C 260.000 353.038,259.796 353.200,259.547 353.200 C 259.298 353.200,258.443 353.604,257.647 354.098 C 256.851 354.591,256.110 355.008,256.000 355.024 C 255.342 355.119,252.800 356.607,252.800 356.898 C 252.800 357.090,252.620 357.136,252.400 357.000 C 252.180 356.864,251.999 356.898,251.999 357.076 C 251.998 357.254,251.188 357.733,250.199 358.140 C 249.209 358.546,248.400 359.041,248.400 359.240 C 248.400 359.438,248.196 359.600,247.947 359.600 C 247.698 359.600,246.843 360.004,246.047 360.498 C 245.251 360.991,244.510 361.408,244.400 361.424 C 243.742 361.519,241.200 363.007,241.200 363.298 C 241.200 363.490,241.020 363.536,240.800 363.400 C 240.580 363.264,240.399 363.298,240.399 363.476 C 240.398 363.654,239.588 364.133,238.599 364.540 C 237.609 364.946,236.800 365.441,236.800 365.640 C 236.800 365.838,236.596 366.000,236.347 366.000 C 236.098 366.000,235.243 366.404,234.447 366.898 C 233.651 367.391,232.910 367.808,232.800 367.824 C 232.142 367.919,229.600 369.407,229.600 369.698 C 229.600 369.890,229.420 369.936,229.200 369.800 C 228.980 369.664,228.800 369.707,228.800 369.896 C 228.800 370.085,228.172 370.466,227.404 370.744 C 226.637 371.022,225.779 371.463,225.498 371.724 C 225.217 371.986,224.271 372.558,223.394 372.996 C 222.517 373.434,221.690 373.944,221.555 374.130 C 221.421 374.316,221.151 374.477,220.955 374.488 C 220.254 374.528,218.000 375.755,218.000 376.098 C 218.000 376.290,217.820 376.336,217.600 376.200 C 217.380 376.064,217.199 376.098,217.199 376.276 C 217.198 376.454,216.388 376.933,215.399 377.340 C 214.409 377.746,213.600 378.271,213.600 378.506 C 213.600 378.741,213.485 378.819,213.345 378.678 C 213.205 378.538,212.592 378.778,211.983 379.212 C 211.375 379.645,210.679 380.000,210.438 380.000 C 210.197 380.000,210.000 380.180,210.000 380.400 C 210.000 380.620,209.865 380.768,209.700 380.728 C 209.211 380.610,206.400 382.118,206.400 382.498 C 206.400 382.690,206.220 382.736,206.000 382.600 C 205.780 382.464,205.599 382.498,205.599 382.676 C 205.598 382.854,204.788 383.333,203.799 383.740 C 202.809 384.146,202.000 384.652,202.000 384.863 C 202.000 385.074,201.860 385.161,201.689 385.055 C 201.518 384.949,200.944 385.190,200.414 385.590 C 199.433 386.329,196.450 385.485,195.506 384.200 C 195.310 383.933,195.208 383.933,195.200 384.200 C 195.193 384.430,195.062 384.411,194.894 384.156 C 194.539 383.620,191.922 382.202,191.500 382.318 C 191.335 382.363,191.200 382.220,191.200 382.000 C 191.200 381.780,191.003 381.600,190.762 381.600 C 190.521 381.600,189.825 381.245,189.217 380.812 C 188.608 380.378,187.995 380.138,187.855 380.278 C 187.715 380.419,187.600 380.341,187.600 380.106 C 187.600 379.871,186.791 379.346,185.801 378.940 C 184.812 378.533,184.002 378.054,184.001 377.876 C 184.001 377.698,183.820 377.664,183.600 377.800 C 183.380 377.936,183.200 377.890,183.200 377.698 C 183.200 377.318,180.389 375.810,179.900 375.928 C 179.735 375.968,179.600 375.820,179.600 375.600 C 179.600 375.380,179.403 375.200,179.162 375.200 C 178.921 375.200,178.225 374.845,177.617 374.412 C 177.008 373.978,176.395 373.738,176.255 373.878 C 176.115 374.019,176.000 373.941,176.000 373.706 C 176.000 373.471,175.191 372.946,174.201 372.540 C 173.212 372.133,172.402 371.654,172.401 371.476 C 172.401 371.298,172.220 371.264,172.000 371.400 C 171.780 371.536,171.600 371.490,171.600 371.298 C 171.600 370.918,168.789 369.410,168.300 369.528 C 168.135 369.568,168.000 369.420,168.000 369.200 C 168.000 368.980,167.803 368.800,167.562 368.800 C 167.321 368.800,166.625 368.445,166.017 368.012 C 165.408 367.578,164.795 367.338,164.655 367.478 C 164.515 367.619,164.400 367.541,164.400 367.306 C 164.400 367.071,163.591 366.546,162.601 366.140 C 161.612 365.733,160.802 365.254,160.801 365.076 C 160.801 364.898,160.620 364.864,160.400 365.000 C 160.180 365.136,160.000 365.090,160.000 364.898 C 160.000 364.607,157.458 363.119,156.800 363.024 C 156.690 363.008,155.949 362.591,155.153 362.098 C 154.357 361.604,153.502 361.200,153.253 361.200 C 153.004 361.200,152.800 361.038,152.800 360.840 C 152.800 360.641,151.991 360.146,151.001 359.740 C 150.012 359.333,149.202 358.854,149.201 358.676 C 149.201 358.498,149.020 358.464,148.800 358.600 C 148.580 358.736,148.400 358.690,148.400 358.498 C 148.400 358.207,145.858 356.719,145.200 356.624 C 145.090 356.608,144.349 356.191,143.553 355.698 C 142.757 355.204,141.902 354.800,141.653 354.800 C 141.404 354.800,141.200 354.638,141.200 354.440 C 141.200 354.241,140.391 353.746,139.401 353.340 C 138.412 352.933,137.602 352.454,137.601 352.276 C 137.601 352.098,137.420 352.064,137.200 352.200 C 136.980 352.336,136.800 352.290,136.800 352.098 C 136.800 351.807,134.258 350.319,133.600 350.224 C 133.490 350.208,132.749 349.791,131.953 349.298 C 131.157 348.804,130.302 348.400,130.053 348.400 C 129.804 348.400,129.600 348.238,129.600 348.040 C 129.600 347.841,128.791 347.346,127.801 346.940 C 126.812 346.533,126.002 346.054,126.001 345.876 C 126.001 345.698,125.820 345.664,125.600 345.800 C 125.380 345.936,125.200 345.890,125.200 345.698 C 125.200 345.407,122.658 343.919,122.000 343.824 C 121.890 343.808,121.149 343.391,120.353 342.898 C 119.557 342.404,118.702 342.000,118.453 342.000 C 118.204 342.000,118.000 341.838,118.000 341.640 C 118.000 341.441,117.191 340.946,116.201 340.540 C 115.212 340.133,114.402 339.654,114.401 339.476 C 114.401 339.298,114.220 339.264,114.000 339.400 C 113.780 339.536,113.600 339.490,113.600 339.298 C 113.600 339.007,111.058 337.519,110.400 337.424 C 110.290 337.408,109.549 336.991,108.753 336.498 C 107.957 336.004,107.102 335.600,106.853 335.600 C 106.604 335.600,106.400 335.438,106.400 335.240 C 106.400 335.041,105.591 334.546,104.601 334.140 C 103.612 333.733,102.802 333.254,102.801 333.076 C 102.801 332.898,102.620 332.864,102.400 333.000 C 102.180 333.136,102.000 333.090,102.000 332.898 C 102.000 332.607,99.458 331.119,98.800 331.024 C 98.690 331.008,97.949 330.591,97.153 330.098 C 96.357 329.604,95.502 329.200,95.253 329.200 C 95.004 329.200,94.800 329.038,94.800 328.840 C 94.800 328.641,93.991 328.146,93.001 327.740 C 92.012 327.333,91.202 326.854,91.201 326.676 C 91.201 326.498,91.020 326.464,90.800 326.600 C 90.580 326.736,90.400 326.690,90.400 326.498 C 90.400 326.207,87.858 324.719,87.200 324.624 C 87.090 324.608,86.349 324.191,85.553 323.698 C 84.757 323.204,83.902 322.800,83.653 322.800 C 83.404 322.800,83.200 322.638,83.200 322.440 C 83.200 322.241,82.391 321.746,81.401 321.340 C 80.412 320.933,79.602 320.454,79.601 320.276 C 79.601 320.098,79.420 320.064,79.200 320.200 C 78.980 320.336,78.800 320.290,78.800 320.098 C 78.800 319.807,76.258 318.319,75.600 318.224 C 75.490 318.208,74.749 317.791,73.953 317.298 C 73.157 316.804,72.302 316.400,72.053 316.400 C 71.804 316.400,71.600 316.238,71.600 316.040 C 71.600 315.841,70.791 315.346,69.801 314.940 C 68.812 314.533,68.002 314.054,68.001 313.876 C 68.001 313.698,67.820 313.664,67.600 313.800 C 67.380 313.936,67.200 313.890,67.200 313.698 C 67.200 313.407,64.658 311.919,64.000 311.824 C 63.890 311.808,63.149 311.391,62.353 310.898 C 61.557 310.404,60.702 310.000,60.453 310.000 C 60.204 310.000,60.000 309.838,60.000 309.640 C 60.000 309.441,59.191 308.946,58.201 308.540 C 57.212 308.133,56.402 307.654,56.401 307.476 C 56.401 307.298,56.220 307.264,56.000 307.400 C 55.780 307.536,55.600 307.490,55.600 307.298 C 55.600 307.007,53.058 305.519,52.400 305.424 C 52.290 305.408,51.549 304.991,50.753 304.498 C 49.957 304.004,49.102 303.600,48.853 303.600 C 48.604 303.600,48.400 303.438,48.400 303.240 C 48.400 303.041,47.591 302.546,46.601 302.140 C 45.612 301.733,44.802 301.254,44.801 301.076 C 44.801 300.898,44.620 300.864,44.400 301.000 C 44.180 301.136,44.000 301.090,44.000 300.898 C 44.000 300.615,41.578 299.184,40.800 299.007 C 40.690 298.982,39.970 298.566,39.200 298.082 C 38.430 297.599,37.575 297.202,37.300 297.201 C 37.025 297.201,36.800 297.009,36.800 296.776 C 36.800 296.543,36.620 296.464,36.400 296.600 C 36.180 296.736,36.000 296.690,36.000 296.498 C 36.000 296.160,33.456 294.781,32.942 294.839 C 32.803 294.855,32.579 294.698,32.445 294.490 C 32.228 294.154,29.717 292.690,29.200 292.598 C 29.090 292.578,28.370 292.166,27.600 291.682 C 26.830 291.199,25.975 290.802,25.700 290.801 C 25.425 290.801,25.200 290.609,25.200 290.376 C 25.200 290.143,25.020 290.064,24.800 290.200 C 24.580 290.336,24.400 290.290,24.400 290.098 C 24.400 289.760,21.856 288.381,21.342 288.439 C 21.203 288.455,20.979 288.298,20.845 288.090 C 20.628 287.754,18.117 286.290,17.600 286.198 C 17.490 286.178,16.770 285.766,16.000 285.282 C 15.230 284.799,14.375 284.402,14.100 284.401 C 13.825 284.401,13.600 284.209,13.600 283.976 C 13.600 283.743,13.420 283.664,13.200 283.800 C 12.980 283.936,12.800 283.890,12.800 283.698 C 12.800 283.384,10.307 281.997,9.783 282.020 C 9.667 282.025,9.295 281.752,8.957 281.414 C 8.619 281.076,8.176 280.800,7.971 280.800 C 7.746 280.800,7.600 294.679,7.600 316.192 L 7.600 351.585 8.600 351.836 C 9.150 351.974,9.600 352.258,9.600 352.467 C 9.600 352.676,9.780 352.736,10.000 352.600 C 10.220 352.464,10.400 352.510,10.400 352.702 C 10.400 352.993,12.942 354.481,13.600 354.576 C 13.710 354.592,14.451 355.009,15.247 355.502 C 16.043 355.996,16.898 356.400,17.147 356.400 C 17.396 356.400,17.600 356.562,17.600 356.760 C 17.600 356.959,18.409 357.454,19.399 357.860 C 20.388 358.267,21.198 358.746,21.199 358.924 C 21.199 359.102,21.380 359.136,21.600 359.000 C 21.820 358.864,22.000 358.910,22.000 359.102 C 22.000 359.393,24.542 360.881,25.200 360.976 C 25.310 360.992,26.051 361.409,26.847 361.902 C 27.643 362.396,28.498 362.800,28.747 362.800 C 28.996 362.800,29.200 362.962,29.200 363.160 C 29.200 363.359,30.009 363.854,30.999 364.260 C 31.988 364.667,32.798 365.146,32.799 365.324 C 32.799 365.502,32.980 365.536,33.200 365.400 C 33.420 365.264,33.600 365.310,33.600 365.502 C 33.600 365.793,36.142 367.281,36.800 367.376 C 36.910 367.392,37.651 367.809,38.447 368.302 C 39.243 368.796,40.098 369.200,40.347 369.200 C 40.596 369.200,40.800 369.362,40.800 369.560 C 40.800 369.759,41.609 370.254,42.599 370.660 C 43.588 371.067,44.398 371.546,44.399 371.724 C 44.399 371.902,44.580 371.936,44.800 371.800 C 45.020 371.664,45.200 371.710,45.200 371.902 C 45.200 372.193,47.742 373.681,48.400 373.776 C 48.510 373.792,49.251 374.209,50.047 374.702 C 50.843 375.196,51.698 375.600,51.947 375.600 C 52.196 375.600,52.400 375.762,52.400 375.960 C 52.400 376.159,53.209 376.654,54.199 377.060 C 55.188 377.467,55.998 377.946,55.999 378.124 C 55.999 378.302,56.180 378.336,56.400 378.200 C 56.620 378.064,56.800 378.110,56.800 378.302 C 56.800 378.593,59.342 380.081,60.000 380.176 C 60.110 380.192,60.851 380.609,61.647 381.102 C 62.443 381.596,63.298 382.000,63.547 382.000 C 63.796 382.000,64.000 382.162,64.000 382.360 C 64.000 382.559,64.809 383.054,65.799 383.460 C 66.788 383.867,67.598 384.346,67.599 384.524 C 67.599 384.702,67.780 384.736,68.000 384.600 C 68.220 384.464,68.400 384.510,68.400 384.702 C 68.400 384.993,70.942 386.481,71.600 386.576 C 71.710 386.592,72.451 387.009,73.247 387.502 C 74.043 387.996,74.898 388.400,75.147 388.400 C 75.396 388.400,75.600 388.562,75.600 388.760 C 75.600 388.959,76.409 389.454,77.399 389.860 C 78.388 390.267,79.198 390.746,79.199 390.924 C 79.199 391.102,79.380 391.136,79.600 391.000 C 79.820 390.864,80.000 390.910,80.000 391.102 C 80.000 391.393,82.542 392.881,83.200 392.976 C 83.310 392.992,84.051 393.409,84.847 393.902 C 85.643 394.396,86.498 394.800,86.747 394.800 C 86.996 394.800,87.200 394.962,87.200 395.160 C 87.200 395.359,88.009 395.854,88.999 396.260 C 89.988 396.667,90.798 397.146,90.799 397.324 C 90.799 397.502,90.980 397.536,91.200 397.400 C 91.420 397.264,91.600 397.310,91.600 397.502 C 91.600 397.793,94.142 399.281,94.800 399.376 C 94.910 399.392,95.651 399.809,96.447 400.302 C 97.243 400.796,98.098 401.200,98.347 401.200 C 98.596 401.200,98.800 401.362,98.800 401.560 C 98.800 401.759,99.609 402.254,100.599 402.660 C 101.588 403.067,102.398 403.546,102.399 403.724 C 102.399 403.902,102.580 403.936,102.800 403.800 C 103.020 403.664,103.200 403.710,103.200 403.902 C 103.200 404.193,105.742 405.681,106.400 405.776 C 106.510 405.792,107.251 406.209,108.047 406.702 C 108.843 407.196,109.698 407.600,109.947 407.600 C 110.196 407.600,110.400 407.762,110.400 407.960 C 110.400 408.159,111.209 408.654,112.199 409.060 C 113.188 409.467,113.998 409.946,113.999 410.124 C 113.999 410.302,114.180 410.336,114.400 410.200 C 114.620 410.064,114.800 410.110,114.800 410.302 C 114.800 410.593,117.342 412.081,118.000 412.176 C 118.110 412.192,118.851 412.609,119.647 413.102 C 120.443 413.596,121.298 414.000,121.547 414.000 C 121.796 414.000,122.000 414.162,122.000 414.360 C 122.000 414.559,122.809 415.054,123.799 415.460 C 124.788 415.867,125.598 416.346,125.599 416.524 C 125.599 416.702,125.780 416.736,126.000 416.600 C 126.220 416.464,126.400 416.510,126.400 416.702 C 126.400 416.993,128.942 418.481,129.600 418.576 C 129.710 418.592,130.451 419.009,131.247 419.502 C 132.043 419.996,132.898 420.400,133.147 420.400 C 133.396 420.400,133.600 420.562,133.600 420.760 C 133.600 420.959,134.409 421.454,135.399 421.860 C 136.388 422.267,137.198 422.746,137.199 422.924 C 137.199 423.102,137.380 423.136,137.600 423.000 C 137.820 422.864,138.000 422.910,138.000 423.102 C 138.000 423.393,140.542 424.881,141.200 424.976 C 141.310 424.992,142.051 425.409,142.847 425.902 C 143.643 426.396,144.498 426.800,144.747 426.800 C 144.996 426.800,145.200 426.962,145.200 427.160 C 145.200 427.359,146.009 427.854,146.999 428.260 C 147.988 428.667,148.798 429.146,148.799 429.324 C 148.799 429.502,148.980 429.536,149.200 429.400 C 149.420 429.264,149.600 429.310,149.600 429.502 C 149.600 429.793,152.142 431.281,152.800 431.376 C 152.910 431.392,153.651 431.809,154.447 432.302 C 155.243 432.796,156.098 433.200,156.347 433.200 C 156.596 433.200,156.800 433.362,156.800 433.560 C 156.800 433.759,157.609 434.254,158.599 434.660 C 159.588 435.067,160.398 435.546,160.399 435.724 C 160.399 435.902,160.580 435.936,160.800 435.800 C 161.020 435.664,161.200 435.710,161.200 435.902 C 161.200 436.193,163.742 437.681,164.400 437.776 C 164.510 437.792,165.251 438.209,166.047 438.702 C 166.843 439.196,167.698 439.600,167.947 439.600 C 168.196 439.600,168.400 439.762,168.400 439.960 C 168.400 440.159,169.209 440.654,170.199 441.060 C 171.188 441.467,171.998 441.946,171.999 442.124 C 171.999 442.302,172.180 442.336,172.400 442.200 C 172.620 442.064,172.800 442.110,172.800 442.302 C 172.800 442.593,175.342 444.081,176.000 444.176 C 176.110 444.192,176.851 444.609,177.647 445.102 C 178.443 445.596,179.298 446.000,179.547 446.000 C 179.796 446.000,180.000 446.162,180.000 446.360 C 180.000 446.559,180.809 447.054,181.799 447.460 C 182.788 447.867,183.598 448.346,183.599 448.524 C 183.599 448.702,183.780 448.736,184.000 448.600 C 184.220 448.464,184.400 448.510,184.400 448.702 C 184.400 448.993,186.942 450.481,187.600 450.576 C 187.710 450.592,188.451 451.009,189.247 451.502 C 190.043 451.996,190.898 452.400,191.147 452.400 C 191.396 452.400,191.600 452.562,191.600 452.760 C 191.600 452.959,192.409 453.454,193.399 453.860 C 194.388 454.267,195.198 454.746,195.199 454.924 C 195.199 455.102,195.380 455.136,195.600 455.000 C 195.820 454.864,196.000 454.910,196.000 455.102 C 196.000 456.341,199.378 457.012,200.738 456.044 C 201.322 455.628,201.934 455.266,202.097 455.239 C 202.881 455.109,205.200 453.811,205.200 453.502 C 205.200 453.310,205.380 453.264,205.600 453.400 C 205.820 453.536,206.001 453.502,206.001 453.324 C 206.002 453.146,206.812 452.667,207.801 452.260 C 208.791 451.854,209.600 451.359,209.600 451.160 C 209.600 450.962,209.804 450.800,210.053 450.800 C 210.302 450.800,211.157 450.396,211.953 449.902 C 212.749 449.409,213.490 448.992,213.600 448.976 C 214.258 448.881,216.800 447.393,216.800 447.102 C 216.800 446.910,216.980 446.864,217.200 447.000 C 217.420 447.136,217.600 447.093,217.600 446.904 C 217.600 446.715,218.228 446.334,218.996 446.056 C 219.763 445.778,220.621 445.337,220.902 445.076 C 221.183 444.814,222.129 444.242,223.006 443.804 C 223.883 443.366,224.710 442.856,224.845 442.670 C 224.979 442.484,225.249 442.323,225.445 442.312 C 226.146 442.272,228.400 441.045,228.400 440.702 C 228.400 440.510,228.580 440.464,228.800 440.600 C 229.020 440.736,229.201 440.702,229.201 440.524 C 229.202 440.346,230.012 439.867,231.001 439.460 C 231.991 439.054,232.800 438.529,232.800 438.294 C 232.800 438.059,232.915 437.981,233.055 438.122 C 233.195 438.262,233.808 438.022,234.417 437.588 C 235.025 437.155,235.721 436.800,235.962 436.800 C 236.203 436.800,236.400 436.620,236.400 436.400 C 236.400 436.180,236.535 436.032,236.700 436.072 C 237.189 436.190,240.000 434.682,240.000 434.302 C 240.000 434.110,240.180 434.064,240.400 434.200 C 240.620 434.336,240.801 434.302,240.801 434.124 C 240.802 433.946,241.612 433.467,242.601 433.060 C 243.591 432.654,244.400 432.129,244.400 431.894 C 244.400 431.659,244.515 431.581,244.655 431.722 C 244.795 431.862,245.408 431.622,246.017 431.188 C 246.625 430.755,247.321 430.400,247.562 430.400 C 247.803 430.400,248.000 430.220,248.000 430.000 C 248.000 429.780,248.135 429.632,248.300 429.672 C 248.789 429.790,251.600 428.282,251.600 427.902 C 251.600 427.710,251.780 427.664,252.000 427.800 C 252.220 427.936,252.401 427.902,252.401 427.724 C 252.402 427.546,253.212 427.067,254.201 426.660 C 255.191 426.254,256.000 425.729,256.000 425.494 C 256.000 425.259,256.115 425.181,256.255 425.322 C 256.395 425.462,257.008 425.222,257.617 424.788 C 258.225 424.355,258.921 424.000,259.162 424.000 C 259.403 424.000,259.600 423.820,259.600 423.600 C 259.600 423.380,259.735 423.232,259.900 423.272 C 260.389 423.390,263.200 421.882,263.200 421.502 C 263.200 421.310,263.380 421.264,263.600 421.400 C 263.820 421.536,264.001 421.502,264.001 421.324 C 264.002 421.146,264.812 420.667,265.801 420.260 C 266.791 419.854,267.600 419.329,267.600 419.094 C 267.600 418.859,267.715 418.781,267.855 418.922 C 267.995 419.062,268.608 418.822,269.217 418.388 C 269.825 417.955,270.521 417.600,270.762 417.600 C 271.003 417.600,271.200 417.420,271.200 417.200 C 271.200 416.980,271.335 416.832,271.500 416.872 C 271.989 416.990,274.800 415.482,274.800 415.102 C 274.800 414.910,274.980 414.864,275.200 415.000 C 275.420 415.136,275.601 415.102,275.601 414.924 C 275.602 414.746,276.412 414.267,277.401 413.860 C 278.391 413.454,279.200 412.929,279.200 412.694 C 279.200 412.459,279.315 412.381,279.455 412.522 C 279.595 412.662,280.208 412.422,280.817 411.988 C 281.425 411.555,282.121 411.200,282.362 411.200 C 282.603 411.200,282.800 411.020,282.800 410.800 C 282.800 410.580,282.935 410.432,283.100 410.472 C 283.589 410.590,286.400 409.082,286.400 408.702 C 286.400 408.510,286.580 408.464,286.800 408.600 C 287.020 408.736,287.201 408.702,287.201 408.524 C 287.202 408.346,288.012 407.867,289.001 407.460 C 289.991 407.054,290.800 406.529,290.800 406.294 C 290.800 406.059,290.915 405.981,291.055 406.122 C 291.195 406.262,291.808 406.022,292.417 405.588 C 293.025 405.155,293.721 404.800,293.962 404.800 C 294.203 404.800,294.400 404.620,294.400 404.400 C 294.400 404.180,294.535 404.032,294.700 404.072 C 295.189 404.190,298.000 402.682,298.000 402.302 C 298.000 402.110,298.180 402.064,298.400 402.200 C 298.620 402.336,298.801 402.302,298.801 402.124 C 298.802 401.946,299.612 401.467,300.601 401.060 C 301.591 400.654,302.400 400.129,302.400 399.894 C 302.400 399.659,302.515 399.581,302.655 399.722 C 302.795 399.862,303.408 399.622,304.017 399.188 C 304.625 398.755,305.321 398.400,305.562 398.400 C 305.803 398.400,306.000 398.220,306.000 398.000 C 306.000 397.780,306.135 397.632,306.300 397.672 C 306.789 397.790,309.600 396.282,309.600 395.902 C 309.600 395.710,309.780 395.664,310.000 395.800 C 310.220 395.936,310.401 395.902,310.401 395.724 C 310.402 395.546,311.212 395.067,312.201 394.660 C 313.191 394.254,314.000 393.729,314.000 393.494 C 314.000 393.259,314.115 393.181,314.255 393.322 C 314.395 393.462,315.008 393.222,315.617 392.788 C 316.225 392.355,316.921 392.000,317.162 392.000 C 317.403 392.000,317.600 391.820,317.600 391.600 C 317.600 391.380,317.735 391.232,317.900 391.272 C 318.389 391.390,321.200 389.882,321.200 389.502 C 321.200 389.310,321.380 389.264,321.600 389.400 C 321.820 389.536,322.001 389.502,322.001 389.324 C 322.002 389.146,322.812 388.667,323.801 388.260 C 324.791 387.854,325.600 387.329,325.600 387.094 C 325.600 386.859,325.715 386.781,325.855 386.922 C 325.995 387.062,326.608 386.822,327.217 386.388 C 327.825 385.955,328.521 385.600,328.762 385.600 C 329.003 385.600,329.200 385.420,329.200 385.200 C 329.200 384.980,329.335 384.832,329.500 384.872 C 329.989 384.990,332.800 383.482,332.800 383.102 C 332.800 382.910,332.980 382.864,333.200 383.000 C 333.420 383.136,333.601 383.102,333.601 382.924 C 333.602 382.746,334.412 382.267,335.401 381.860 C 336.391 381.454,337.200 380.929,337.200 380.694 C 337.200 380.459,337.315 380.381,337.455 380.522 C 337.595 380.662,338.208 380.422,338.817 379.988 C 339.425 379.555,340.121 379.200,340.362 379.200 C 340.603 379.200,340.800 379.020,340.800 378.800 C 340.800 378.580,340.935 378.432,341.100 378.472 C 341.589 378.590,344.400 377.082,344.400 376.702 C 344.400 376.510,344.580 376.464,344.800 376.600 C 345.020 376.736,345.201 376.702,345.201 376.524 C 345.202 376.346,346.012 375.867,347.001 375.460 C 347.991 375.054,348.800 374.559,348.800 374.360 C 348.800 374.162,348.935 374.037,349.100 374.082 C 349.496 374.191,352.132 372.794,352.445 372.310 C 352.579 372.102,352.803 371.945,352.942 371.961 C 353.456 372.019,356.000 370.640,356.000 370.302 C 356.000 370.110,356.180 370.064,356.400 370.200 C 356.620 370.336,356.800 370.257,356.800 370.024 C 356.800 369.791,357.025 369.599,357.300 369.599 C 357.575 369.598,358.430 369.201,359.200 368.718 C 359.970 368.234,360.690 367.822,360.800 367.802 C 361.317 367.710,363.828 366.246,364.045 365.910 C 364.179 365.702,364.403 365.545,364.542 365.561 C 365.056 365.619,367.600 364.240,367.600 363.902 C 367.600 363.710,367.780 363.664,368.000 363.800 C 368.220 363.936,368.400 363.857,368.400 363.624 C 368.400 363.391,368.625 363.199,368.900 363.199 C 369.175 363.198,370.030 362.801,370.800 362.318 C 371.570 361.834,372.290 361.422,372.400 361.402 C 372.917 361.310,375.428 359.846,375.645 359.510 C 375.779 359.302,376.003 359.145,376.142 359.161 C 376.656 359.219,379.200 357.840,379.200 357.502 C 379.200 357.310,379.380 357.264,379.600 357.400 C 379.820 357.536,380.000 357.457,380.000 357.224 C 380.000 356.991,380.225 356.799,380.500 356.799 C 380.775 356.798,381.630 356.401,382.400 355.918 C 383.170 355.434,383.890 355.022,384.000 355.002 C 384.517 354.910,387.028 353.446,387.245 353.110 C 387.379 352.902,387.603 352.745,387.742 352.761 C 387.881 352.776,388.626 352.488,389.397 352.121 L 390.800 351.452 390.800 292.897 C 390.800 241.382,390.728 234.271,390.200 233.743 C 389.870 233.413,389.597 233.291,389.594 233.471 C 389.591 233.652,389.456 233.600,389.294 233.356 C 389.029 232.956,386.494 231.462,386.000 231.414 C 385.890 231.404,385.149 230.991,384.353 230.498 C 383.557 230.004,382.702 229.600,382.453 229.600 C 382.204 229.600,382.000 229.438,382.000 229.240 C 382.000 229.041,381.191 228.546,380.201 228.140 C 379.212 227.733,378.402 227.254,378.401 227.076 C 378.401 226.898,378.220 226.864,378.000 227.000 C 377.780 227.136,377.600 227.090,377.600 226.898 C 377.600 226.607,375.058 225.119,374.400 225.024 C 374.290 225.008,373.549 224.591,372.753 224.098 C 371.957 223.604,371.102 223.200,370.853 223.200 C 370.604 223.200,370.400 223.038,370.400 222.840 C 370.400 222.641,369.591 222.146,368.601 221.740 C 367.612 221.333,366.802 220.854,366.801 220.676 C 366.801 220.498,366.620 220.464,366.400 220.600 C 366.180 220.736,366.000 220.690,366.000 220.498 C 366.000 220.207,363.458 218.719,362.800 218.624 C 362.690 218.608,361.949 218.191,361.153 217.698 C 360.357 217.204,359.502 216.800,359.253 216.800 C 359.004 216.800,358.800 216.638,358.800 216.440 C 358.800 216.241,357.991 215.746,357.001 215.340 C 356.012 214.933,355.202 214.454,355.201 214.276 C 355.201 214.098,355.020 214.064,354.800 214.200 C 354.580 214.336,354.400 214.290,354.400 214.098 C 354.400 213.807,351.858 212.319,351.200 212.224 C 351.090 212.208,350.349 211.791,349.553 211.298 C 348.757 210.804,347.902 210.400,347.653 210.400 C 347.404 210.400,347.200 210.238,347.200 210.040 C 347.200 209.841,346.391 209.346,345.401 208.940 C 344.412 208.533,343.602 208.054,343.601 207.876 C 343.601 207.698,343.420 207.664,343.200 207.800 C 342.980 207.936,342.800 207.890,342.800 207.698 C 342.800 207.407,340.258 205.919,339.600 205.824 C 339.490 205.808,338.749 205.391,337.953 204.898 C 337.157 204.404,336.302 204.000,336.053 204.000 C 335.804 204.000,335.600 203.838,335.600 203.640 C 335.600 203.441,334.791 202.946,333.801 202.540 C 332.812 202.133,332.002 201.654,332.001 201.476 C 332.001 201.298,331.820 201.264,331.600 201.400 C 331.380 201.536,331.200 201.490,331.200 201.298 C 331.200 201.007,328.658 199.519,328.000 199.424 C 327.890 199.408,327.149 198.991,326.353 198.498 C 325.557 198.004,324.702 197.600,324.453 197.600 C 324.204 197.600,324.000 197.438,324.000 197.240 C 324.000 197.041,323.191 196.546,322.201 196.140 C 321.212 195.733,320.402 195.254,320.401 195.076 C 320.401 194.898,320.220 194.864,320.000 195.000 C 319.780 195.136,319.600 195.090,319.600 194.898 C 319.600 194.607,317.058 193.119,316.400 193.024 C 316.290 193.008,315.549 192.591,314.753 192.098 C 313.957 191.604,313.102 191.200,312.853 191.200 C 312.604 191.200,312.400 191.038,312.400 190.840 C 312.400 190.641,311.591 190.146,310.601 189.740 C 309.612 189.333,308.802 188.854,308.801 188.676 C 308.801 188.498,308.620 188.464,308.400 188.600 C 308.180 188.736,308.000 188.690,308.000 188.498 C 308.000 188.207,305.458 186.719,304.800 186.624 C 304.690 186.608,303.949 186.191,303.153 185.698 C 302.357 185.204,301.502 184.800,301.253 184.800 C 301.004 184.800,300.800 184.638,300.800 184.440 C 300.800 184.241,299.991 183.746,299.001 183.340 C 298.012 182.933,297.202 182.454,297.201 182.276 C 297.201 182.098,297.020 182.064,296.800 182.200 C 296.580 182.336,296.400 182.290,296.400 182.098 C 296.400 181.807,293.858 180.319,293.200 180.224 C 293.090 180.208,292.349 179.791,291.553 179.298 C 290.757 178.804,289.902 178.400,289.653 178.400 C 289.404 178.400,289.200 178.238,289.200 178.040 C 289.200 177.841,288.391 177.346,287.401 176.940 C 286.412 176.533,285.602 176.054,285.601 175.876 C 285.601 175.698,285.420 175.664,285.200 175.800 C 284.980 175.936,284.800 175.890,284.800 175.698 C 284.800 175.407,282.258 173.919,281.600 173.824 C 281.490 173.808,280.749 173.391,279.953 172.898 C 279.157 172.404,278.302 172.000,278.053 172.000 C 277.804 172.000,277.600 171.838,277.600 171.640 C 277.600 171.441,276.791 170.946,275.801 170.540 C 274.812 170.133,274.002 169.654,274.001 169.476 C 274.001 169.298,273.820 169.264,273.600 169.400 C 273.380 169.536,273.200 169.490,273.200 169.298 C 273.200 169.007,270.658 167.519,270.000 167.424 C 269.890 167.408,269.149 166.991,268.353 166.498 C 267.557 166.004,266.702 165.600,266.453 165.600 C 266.204 165.600,266.000 165.438,266.000 165.240 C 266.000 165.041,265.191 164.546,264.201 164.140 C 263.212 163.733,262.402 163.254,262.401 163.076 C 262.401 162.898,262.220 162.864,262.000 163.000 C 261.780 163.136,261.600 163.090,261.600 162.898 C 261.600 162.607,259.058 161.119,258.400 161.024 C 258.290 161.008,257.549 160.591,256.753 160.098 C 255.957 159.604,255.102 159.200,254.853 159.200 C 254.604 159.200,254.400 159.009,254.400 158.776 C 254.400 158.543,254.220 158.464,254.000 158.600 C 253.780 158.736,253.600 158.690,253.600 158.498 C 253.600 158.165,250.769 156.635,250.445 156.793 C 250.359 156.834,250.179 156.698,250.045 156.490 C 249.818 156.140,247.254 154.658,246.800 154.614 C 246.690 154.604,245.949 154.191,245.153 153.698 C 244.357 153.204,243.502 152.800,243.253 152.800 C 243.004 152.800,242.800 152.656,242.800 152.480 C 242.800 152.163,239.432 150.381,238.943 150.438 C 238.803 150.455,238.579 150.298,238.445 150.090 C 238.228 149.754,235.717 148.290,235.200 148.198 C 235.090 148.178,234.370 147.766,233.600 147.282 C 232.830 146.799,231.975 146.402,231.700 146.401 C 231.425 146.401,231.200 146.209,231.200 145.976 C 231.200 145.743,231.020 145.664,230.800 145.800 C 230.580 145.936,230.400 145.890,230.400 145.698 C 230.400 145.355,228.146 144.128,227.445 144.088 C 227.249 144.077,226.979 143.898,226.845 143.690 C 226.628 143.354,224.117 141.890,223.600 141.798 C 223.490 141.778,222.770 141.366,222.000 140.882 C 221.230 140.399,220.375 140.002,220.100 140.001 C 219.825 140.001,219.600 139.809,219.600 139.576 C 219.600 139.343,219.420 139.264,219.200 139.400 C 218.980 139.536,218.800 139.490,218.800 139.298 C 218.800 138.965,215.969 137.435,215.645 137.593 C 215.559 137.634,215.379 137.498,215.245 137.290 C 215.028 136.954,212.517 135.490,212.000 135.398 C 211.890 135.378,211.170 134.966,210.400 134.482 C 209.630 133.999,208.775 133.602,208.500 133.601 C 208.225 133.601,208.000 133.409,208.000 133.176 C 208.000 132.943,207.820 132.864,207.600 133.000 C 207.380 133.136,207.200 133.090,207.200 132.898 C 207.200 132.565,204.369 131.035,204.045 131.193 C 203.959 131.234,203.779 131.098,203.645 130.890 C 203.396 130.505,200.819 129.047,200.333 129.017 C 200.187 129.008,199.932 128.865,199.767 128.700 C 199.347 128.280,199.091 128.321,198.189 128.953 " stroke="none" fill="#e98c46" fill-rule="evenodd"></path></g></svg>