<svg id="svg" version="1.1" width="400" height="468" viewBox="0 0 400 468" xmlns="http://www.w3.org/2000/svg" xmlns:xlink="http://www.w3.org/1999/xlink" ><g id="svgg"><path id="path0" d="" stroke="none" fill="#e4873c" fill-rule="evenodd"></path><path id="path1" d="M194.982 2.047 C 192.792 3.174,190.550 4.410,190.000 4.795 C 189.450 5.180,188.595 5.621,188.100 5.774 C 187.605 5.928,187.200 6.210,187.200 6.400 C 187.200 6.590,186.795 6.871,186.300 7.024 C 185.805 7.176,183.780 8.203,181.800 9.305 C 179.820 10.407,177.660 11.588,177.000 11.930 C 176.340 12.273,175.562 12.788,175.271 13.076 C 174.981 13.364,174.564 13.600,174.345 13.600 C 174.127 13.600,172.294 14.524,170.274 15.654 C 168.253 16.784,166.060 17.988,165.400 18.330 C 164.740 18.673,163.962 19.188,163.671 19.476 C 163.381 19.764,162.964 20.000,162.745 20.000 C 162.527 20.000,160.694 20.924,158.674 22.054 C 156.653 23.184,154.460 24.388,153.800 24.730 C 153.140 25.073,152.362 25.588,152.071 25.876 C 151.781 26.164,151.364 26.400,151.145 26.400 C 150.927 26.400,149.094 27.324,147.074 28.454 C 145.053 29.584,142.860 30.788,142.200 31.130 C 141.540 31.473,140.762 31.988,140.471 32.276 C 140.181 32.564,139.764 32.800,139.545 32.800 C 139.327 32.800,137.494 33.724,135.474 34.854 C 133.453 35.984,131.260 37.188,130.600 37.530 C 129.940 37.873,129.162 38.388,128.871 38.676 C 128.581 38.964,128.164 39.200,127.945 39.200 C 127.727 39.200,125.894 40.124,123.874 41.254 C 121.853 42.384,119.660 43.588,119.000 43.930 C 118.340 44.273,117.562 44.788,117.271 45.076 C 116.981 45.364,116.564 45.600,116.345 45.600 C 116.127 45.600,114.294 46.524,112.274 47.654 C 110.253 48.784,108.060 49.988,107.400 50.330 C 106.740 50.673,105.962 51.188,105.671 51.476 C 105.381 51.764,104.964 52.000,104.745 52.000 C 104.527 52.000,102.694 52.924,100.674 54.054 C 98.653 55.184,96.460 56.388,95.800 56.730 C 95.140 57.073,94.362 57.588,94.071 57.876 C 93.781 58.164,93.364 58.400,93.145 58.400 C 92.927 58.400,91.094 59.324,89.074 60.454 C 87.053 61.584,84.860 62.788,84.200 63.130 C 83.540 63.473,82.762 63.988,82.471 64.276 C 82.181 64.564,81.764 64.800,81.545 64.800 C 81.327 64.800,79.494 65.724,77.474 66.854 C 75.453 67.984,73.260 69.188,72.600 69.530 C 71.940 69.873,71.162 70.388,70.871 70.676 C 70.581 70.964,70.164 71.200,69.945 71.200 C 69.727 71.200,67.894 72.124,65.874 73.254 C 63.853 74.384,61.660 75.588,61.000 75.930 C 60.340 76.273,59.562 76.788,59.271 77.076 C 58.981 77.364,58.564 77.600,58.345 77.600 C 58.127 77.600,56.294 78.524,54.274 79.654 C 52.253 80.784,50.060 81.988,49.400 82.330 C 48.740 82.673,47.962 83.188,47.671 83.476 C 47.381 83.764,46.964 84.000,46.745 84.000 C 46.527 84.000,44.694 84.924,42.674 86.054 C 40.653 87.184,38.460 88.388,37.800 88.730 C 37.140 89.073,36.362 89.588,36.071 89.876 C 35.781 90.164,35.364 90.400,35.145 90.400 C 34.927 90.400,33.094 91.324,31.074 92.454 C 29.053 93.584,26.860 94.788,26.200 95.130 C 25.540 95.473,24.762 95.988,24.471 96.276 C 24.181 96.564,23.764 96.800,23.545 96.800 C 23.327 96.800,21.494 97.724,19.474 98.854 C 17.453 99.984,15.260 101.185,14.600 101.523 C 13.940 101.861,13.310 102.245,13.200 102.377 C 13.090 102.508,11.784 103.225,10.299 103.969 L 7.597 105.321 7.699 164.301 L 7.800 223.281 11.396 225.140 C 13.373 226.163,15.083 227.104,15.196 227.231 C 15.590 227.677,25.859 233.200,26.294 233.200 C 26.535 233.200,26.793 233.348,26.867 233.529 C 27.036 233.947,37.304 239.600,37.894 239.600 C 38.135 239.600,38.393 239.748,38.467 239.929 C 38.636 240.347,48.904 246.000,49.494 246.000 C 49.735 246.000,49.993 246.148,50.067 246.329 C 50.236 246.747,60.504 252.400,61.094 252.400 C 61.335 252.400,61.593 252.548,61.667 252.729 C 61.836 253.147,72.104 258.800,72.694 258.800 C 72.935 258.800,73.193 258.948,73.267 259.129 C 73.436 259.547,83.704 265.200,84.294 265.200 C 84.535 265.200,84.793 265.347,84.867 265.526 C 85.028 265.922,94.594 271.200,95.150 271.200 C 95.366 271.200,95.781 271.436,96.071 271.724 C 96.362 272.012,97.140 272.527,97.800 272.870 C 98.460 273.212,100.653 274.416,102.674 275.546 C 104.694 276.676,106.527 277.600,106.745 277.600 C 106.964 277.600,107.381 277.836,107.671 278.124 C 107.962 278.412,108.740 278.927,109.400 279.270 C 110.060 279.612,112.253 280.816,114.274 281.946 C 116.294 283.076,118.127 284.000,118.345 284.000 C 118.564 284.000,118.981 284.236,119.271 284.524 C 119.562 284.812,120.340 285.327,121.000 285.670 C 121.660 286.012,123.853 287.216,125.874 288.346 C 127.894 289.476,129.727 290.400,129.945 290.400 C 130.164 290.400,130.581 290.636,130.871 290.924 C 131.162 291.212,131.940 291.727,132.600 292.070 C 133.260 292.412,135.453 293.616,137.474 294.746 C 139.494 295.876,141.327 296.800,141.545 296.800 C 141.764 296.800,142.181 297.036,142.471 297.324 C 142.762 297.612,143.540 298.127,144.200 298.470 C 144.860 298.812,147.053 300.016,149.074 301.146 C 151.094 302.276,152.927 303.200,153.145 303.200 C 153.364 303.200,153.781 303.436,154.071 303.724 C 154.362 304.012,155.140 304.527,155.800 304.870 C 156.460 305.212,158.653 306.416,160.674 307.546 C 162.694 308.676,164.527 309.600,164.745 309.600 C 164.964 309.600,165.381 309.836,165.671 310.124 C 165.962 310.412,166.740 310.927,167.400 311.270 C 168.060 311.612,170.253 312.816,172.274 313.946 C 174.294 315.076,176.127 316.000,176.345 316.000 C 176.564 316.000,176.981 316.236,177.271 316.524 C 177.562 316.812,178.340 317.327,179.000 317.670 C 179.660 318.012,181.853 319.216,183.874 320.346 C 185.894 321.476,187.727 322.400,187.945 322.400 C 188.164 322.400,188.581 322.636,188.871 322.924 C 189.162 323.212,189.940 323.728,190.600 324.071 C 191.260 324.413,193.150 325.454,194.800 326.384 C 199.116 328.815,199.375 328.889,200.427 327.977 C 200.919 327.550,201.487 327.200,201.687 327.200 C 201.888 327.200,203.706 326.276,205.726 325.146 C 207.747 324.016,209.940 322.812,210.600 322.470 C 211.260 322.127,212.038 321.612,212.329 321.324 C 212.619 321.036,213.036 320.800,213.255 320.800 C 213.473 320.800,215.306 319.876,217.326 318.746 C 219.347 317.616,221.540 316.412,222.200 316.070 C 222.860 315.727,223.638 315.212,223.929 314.924 C 224.219 314.636,224.636 314.400,224.855 314.400 C 225.073 314.400,226.906 313.476,228.926 312.346 C 230.947 311.216,233.140 310.012,233.800 309.670 C 234.460 309.327,235.238 308.812,235.529 308.524 C 235.819 308.236,236.236 308.000,236.455 308.000 C 236.673 308.000,238.506 307.076,240.526 305.946 C 242.547 304.816,244.740 303.611,245.400 303.267 C 246.060 302.924,246.780 302.498,247.000 302.320 C 247.220 302.142,249.020 301.162,251.000 300.142 C 252.980 299.122,255.050 297.977,255.600 297.596 C 256.150 297.216,257.005 296.779,257.500 296.626 C 257.995 296.472,258.400 296.203,258.400 296.027 C 258.400 295.852,259.188 295.408,260.151 295.040 C 263.163 293.890,263.548 293.075,261.505 292.174 C 260.567 291.760,259.710 291.313,259.600 291.180 C 259.238 290.743,248.956 285.200,248.506 285.200 C 248.265 285.200,248.007 285.052,247.933 284.871 C 247.764 284.453,237.496 278.800,236.906 278.800 C 236.665 278.800,236.407 278.652,236.333 278.471 C 236.164 278.053,225.896 272.400,225.306 272.400 C 225.065 272.400,224.807 272.252,224.733 272.071 C 224.564 271.653,214.296 266.000,213.706 266.000 C 213.465 266.000,213.207 265.852,213.133 265.671 C 212.964 265.253,202.696 259.600,202.106 259.600 C 201.865 259.600,201.607 259.453,201.533 259.274 C 201.372 258.878,191.806 253.600,191.250 253.600 C 191.034 253.600,190.619 253.364,190.329 253.076 C 190.038 252.788,189.260 252.273,188.600 251.930 C 187.940 251.588,185.747 250.384,183.726 249.254 C 181.706 248.124,179.873 247.200,179.655 247.200 C 179.436 247.200,179.019 246.964,178.729 246.676 C 178.438 246.388,177.660 245.873,177.000 245.530 C 176.340 245.188,174.147 243.984,172.126 242.854 C 170.106 241.724,168.273 240.800,168.055 240.800 C 167.836 240.800,167.419 240.564,167.129 240.276 C 166.838 239.988,166.060 239.473,165.400 239.130 C 164.740 238.788,162.547 237.584,160.526 236.454 C 158.506 235.324,156.673 234.400,156.455 234.400 C 156.236 234.400,155.819 234.164,155.529 233.876 C 155.238 233.588,154.460 233.073,153.800 232.730 C 153.140 232.388,150.947 231.184,148.926 230.054 C 146.906 228.924,145.073 228.000,144.855 228.000 C 144.636 228.000,144.219 227.764,143.929 227.476 C 143.638 227.188,142.860 226.673,142.200 226.330 C 141.540 225.988,139.347 224.784,137.326 223.654 C 135.306 222.524,133.473 221.600,133.255 221.600 C 133.036 221.600,132.619 221.364,132.329 221.076 C 132.038 220.788,131.260 220.273,130.600 219.930 C 129.940 219.588,127.747 218.384,125.726 217.254 C 123.706 216.124,121.873 215.200,121.655 215.200 C 121.436 215.200,121.019 214.964,120.729 214.676 C 120.438 214.388,119.660 213.873,119.000 213.530 C 118.340 213.188,116.147 211.984,114.126 210.854 C 112.106 209.724,110.273 208.800,110.055 208.800 C 109.836 208.800,109.419 208.564,109.129 208.276 C 108.838 207.988,108.060 207.473,107.400 207.130 C 106.740 206.788,104.547 205.584,102.526 204.454 C 100.506 203.324,98.673 202.400,98.455 202.400 C 98.236 202.400,97.819 202.164,97.529 201.876 C 97.238 201.588,96.460 201.073,95.800 200.730 C 95.140 200.388,92.947 199.184,90.926 198.054 C 88.906 196.924,87.073 196.000,86.855 196.000 C 86.636 196.000,86.219 195.764,85.929 195.476 C 85.638 195.188,84.860 194.673,84.200 194.330 C 83.540 193.988,81.380 192.807,79.400 191.705 C 77.420 190.603,75.395 189.576,74.900 189.424 C 74.405 189.271,74.000 188.996,74.000 188.812 C 74.000 188.629,73.460 188.290,72.800 188.060 L 71.600 187.642 71.600 164.449 C 71.600 140.154,71.610 140.000,73.255 140.000 C 73.473 140.000,75.306 139.076,77.326 137.946 C 79.347 136.816,81.540 135.612,82.200 135.270 C 82.860 134.927,83.638 134.412,83.929 134.124 C 84.219 133.836,84.636 133.600,84.855 133.600 C 85.073 133.600,86.906 132.676,88.926 131.546 C 90.947 130.416,93.140 129.212,93.800 128.870 C 94.460 128.527,95.238 128.012,95.529 127.724 C 95.819 127.436,96.234 127.200,96.450 127.200 C 97.006 127.200,106.572 121.922,106.733 121.526 C 106.807 121.347,107.065 121.200,107.306 121.200 C 107.896 121.200,118.164 115.547,118.333 115.129 C 118.407 114.948,118.665 114.800,118.906 114.800 C 119.496 114.800,129.764 109.147,129.933 108.729 C 130.007 108.548,130.265 108.400,130.506 108.400 C 131.096 108.400,141.364 102.747,141.533 102.329 C 141.607 102.148,141.865 102.000,142.106 102.000 C 142.544 102.000,152.818 96.472,153.200 96.031 C 153.310 95.904,154.390 95.306,155.600 94.701 C 156.810 94.097,158.700 93.070,159.800 92.419 C 160.900 91.768,162.171 91.064,162.625 90.856 C 163.079 90.647,164.969 89.624,166.825 88.581 C 168.681 87.538,170.830 86.349,171.600 85.937 C 172.370 85.525,173.270 85.020,173.600 84.813 C 174.170 84.457,180.205 81.141,183.200 79.538 C 183.970 79.126,184.870 78.617,185.200 78.407 C 185.530 78.197,187.400 77.164,189.355 76.112 C 191.311 75.061,193.741 73.716,194.755 73.124 C 198.724 70.810,200.596 70.491,201.592 71.956 C 201.706 72.125,202.340 72.539,203.000 72.877 C 204.669 73.732,211.671 77.557,212.400 78.013 C 212.730 78.220,213.630 78.726,214.400 79.138 C 217.395 80.741,223.430 84.057,224.000 84.413 C 224.330 84.620,225.230 85.126,226.000 85.538 C 228.995 87.141,235.030 90.457,235.600 90.813 C 235.930 91.020,236.830 91.526,237.600 91.938 C 240.595 93.541,246.630 96.857,247.200 97.213 C 247.530 97.420,248.430 97.926,249.200 98.338 C 251.963 99.817,258.212 103.246,258.800 103.606 C 261.053 104.986,266.779 108.000,267.150 108.000 C 267.397 108.000,267.600 108.158,267.600 108.351 C 267.600 108.545,268.185 108.943,268.900 109.237 C 269.615 109.531,270.751 110.137,271.425 110.585 C 272.099 111.033,274.079 112.120,275.825 113.000 C 277.571 113.880,279.090 114.704,279.200 114.831 C 279.582 115.272,289.856 120.800,290.294 120.800 C 290.535 120.800,290.793 120.948,290.867 121.129 C 291.036 121.547,301.304 127.200,301.894 127.200 C 302.135 127.200,302.393 127.348,302.467 127.529 C 302.636 127.947,312.904 133.600,313.494 133.600 C 313.735 133.600,313.993 133.746,314.067 133.924 C 314.236 134.335,323.743 139.600,324.316 139.600 C 324.551 139.600,324.981 139.836,325.271 140.124 C 325.562 140.412,326.340 140.927,327.000 141.270 C 327.660 141.612,329.853 142.816,331.874 143.946 C 333.894 145.076,335.727 146.000,335.945 146.000 C 336.164 146.000,336.581 146.236,336.871 146.524 C 337.162 146.812,337.940 147.327,338.600 147.670 C 339.260 148.012,341.453 149.216,343.474 150.346 C 345.494 151.476,347.327 152.400,347.545 152.400 C 347.764 152.400,348.181 152.636,348.471 152.924 C 348.762 153.212,349.540 153.727,350.200 154.070 C 350.860 154.412,353.053 155.616,355.074 156.746 C 357.094 157.876,358.927 158.800,359.145 158.800 C 359.364 158.800,359.781 159.036,360.071 159.324 C 360.362 159.612,361.140 160.127,361.800 160.470 C 362.460 160.812,364.653 162.016,366.674 163.146 C 368.694 164.276,370.527 165.200,370.745 165.200 C 370.964 165.200,371.381 165.436,371.671 165.724 C 371.962 166.012,372.740 166.527,373.400 166.870 C 374.060 167.212,376.253 168.416,378.274 169.546 C 380.294 170.676,382.127 171.600,382.345 171.600 C 382.564 171.600,382.981 171.836,383.271 172.124 C 383.562 172.412,384.340 172.930,385.000 173.275 C 385.660 173.620,387.235 174.478,388.500 175.181 L 390.800 176.460 390.800 140.908 L 390.800 105.356 387.700 103.782 C 385.995 102.916,384.510 102.102,384.400 101.972 C 384.290 101.843,383.660 101.461,383.000 101.123 C 382.340 100.785,380.147 99.584,378.126 98.454 C 376.106 97.324,374.273 96.400,374.055 96.400 C 373.836 96.400,373.419 96.164,373.129 95.876 C 372.838 95.588,372.060 95.073,371.400 94.730 C 370.740 94.388,368.547 93.184,366.526 92.054 C 364.506 90.924,362.673 90.000,362.455 90.000 C 362.236 90.000,361.819 89.764,361.529 89.476 C 361.238 89.188,360.460 88.673,359.800 88.330 C 359.140 87.988,356.947 86.784,354.926 85.654 C 352.906 84.524,351.073 83.600,350.855 83.600 C 350.636 83.600,350.219 83.364,349.929 83.076 C 349.638 82.788,348.860 82.273,348.200 81.930 C 347.540 81.588,345.347 80.384,343.326 79.254 C 341.306 78.124,339.473 77.200,339.255 77.200 C 339.036 77.200,338.619 76.964,338.329 76.676 C 338.038 76.388,337.260 75.873,336.600 75.530 C 335.940 75.188,333.747 73.984,331.726 72.854 C 329.706 71.724,327.873 70.800,327.655 70.800 C 327.436 70.800,327.019 70.564,326.729 70.276 C 326.438 69.988,325.660 69.473,325.000 69.130 C 324.340 68.788,322.147 67.584,320.126 66.454 C 318.106 65.324,316.273 64.400,316.055 64.400 C 315.836 64.400,315.419 64.164,315.129 63.876 C 314.838 63.588,314.060 63.073,313.400 62.730 C 312.740 62.388,310.547 61.184,308.526 60.054 C 306.506 58.924,304.673 58.000,304.455 58.000 C 304.236 58.000,303.819 57.764,303.529 57.476 C 303.238 57.188,302.460 56.673,301.800 56.330 C 301.140 55.988,298.947 54.784,296.926 53.654 C 294.906 52.524,293.073 51.600,292.855 51.600 C 292.636 51.600,292.219 51.364,291.929 51.076 C 291.638 50.788,290.860 50.273,290.200 49.930 C 289.540 49.588,287.347 48.384,285.326 47.254 C 283.306 46.124,281.473 45.200,281.255 45.200 C 281.036 45.200,280.619 44.964,280.329 44.676 C 280.038 44.388,279.260 43.873,278.600 43.530 C 277.940 43.188,275.747 41.984,273.726 40.854 C 271.706 39.724,269.873 38.800,269.655 38.800 C 269.436 38.800,269.019 38.564,268.729 38.276 C 268.438 37.988,267.660 37.473,267.000 37.130 C 266.340 36.788,264.147 35.584,262.126 34.454 C 260.106 33.324,258.273 32.400,258.055 32.400 C 257.836 32.400,257.419 32.164,257.129 31.876 C 256.838 31.588,256.060 31.073,255.400 30.730 C 254.740 30.388,252.547 29.184,250.526 28.054 C 248.506 26.924,246.673 26.000,246.455 26.000 C 246.236 26.000,245.819 25.764,245.529 25.476 C 245.238 25.188,244.460 24.673,243.800 24.330 C 243.140 23.988,240.947 22.784,238.926 21.654 C 236.906 20.524,235.073 19.600,234.855 19.600 C 234.636 19.600,234.219 19.364,233.929 19.076 C 233.638 18.788,232.860 18.273,232.200 17.930 C 230.371 16.982,223.479 13.211,222.800 12.787 C 222.470 12.580,221.570 12.074,220.800 11.662 C 217.805 10.059,211.770 6.743,211.200 6.387 C 210.870 6.180,209.970 5.674,209.200 5.262 C 208.430 4.850,206.180 3.610,204.200 2.507 C 199.138 -0.314,199.531 -0.294,194.982 2.047 M194.982 130.447 C 192.792 131.574,190.550 132.810,190.000 133.195 C 189.450 133.580,188.595 134.021,188.100 134.174 C 187.605 134.328,187.200 134.610,187.200 134.800 C 187.200 134.990,186.795 135.271,186.300 135.424 C 185.805 135.576,183.780 136.603,181.800 137.705 C 179.820 138.807,177.660 139.988,177.000 140.330 C 176.340 140.673,175.562 141.188,175.271 141.476 C 174.981 141.764,174.564 142.000,174.345 142.000 C 174.127 142.000,172.294 142.924,170.274 144.054 C 168.253 145.184,166.060 146.388,165.400 146.730 C 164.740 147.073,163.962 147.588,163.671 147.876 C 163.381 148.164,162.964 148.400,162.745 148.400 C 162.527 148.400,160.694 149.324,158.674 150.454 C 156.653 151.584,154.460 152.788,153.800 153.130 C 153.140 153.473,152.362 153.988,152.071 154.276 C 151.781 154.564,151.364 154.800,151.145 154.800 C 150.927 154.800,149.094 155.724,147.074 156.854 C 145.053 157.984,142.860 159.185,142.200 159.523 C 141.540 159.861,140.910 160.245,140.800 160.377 C 140.690 160.508,139.398 161.218,137.930 161.953 C 134.637 163.601,134.689 163.739,139.507 166.203 C 141.648 167.298,143.490 168.299,143.600 168.428 C 143.710 168.557,144.340 168.939,145.000 169.277 C 145.660 169.615,147.853 170.816,149.874 171.946 C 151.894 173.076,153.727 174.000,153.945 174.000 C 154.164 174.000,154.581 174.236,154.871 174.524 C 155.162 174.812,155.940 175.327,156.600 175.670 C 157.260 176.012,159.453 177.216,161.474 178.346 C 163.494 179.476,165.327 180.400,165.545 180.400 C 165.764 180.400,166.181 180.636,166.471 180.924 C 166.762 181.212,167.540 181.727,168.200 182.070 C 170.029 183.018,176.921 186.789,177.600 187.213 C 177.930 187.420,178.830 187.926,179.600 188.338 C 182.595 189.941,188.630 193.257,189.200 193.613 C 189.530 193.820,190.430 194.326,191.200 194.738 C 194.195 196.341,200.230 199.657,200.800 200.013 C 201.130 200.220,202.030 200.726,202.800 201.138 C 205.795 202.741,211.830 206.057,212.400 206.413 C 212.730 206.620,213.630 207.125,214.400 207.537 C 215.170 207.949,217.319 209.138,219.175 210.181 C 221.031 211.224,222.921 212.247,223.375 212.456 C 223.829 212.664,225.100 213.368,226.200 214.019 C 227.300 214.670,229.190 215.697,230.400 216.301 C 231.610 216.906,232.690 217.504,232.800 217.631 C 233.182 218.072,243.456 223.600,243.894 223.600 C 244.135 223.600,244.393 223.748,244.467 223.929 C 244.636 224.347,254.904 230.000,255.494 230.000 C 255.735 230.000,255.993 230.148,256.067 230.329 C 256.236 230.747,266.504 236.400,267.094 236.400 C 267.335 236.400,267.593 236.548,267.667 236.729 C 267.836 237.147,278.104 242.800,278.694 242.800 C 278.935 242.800,279.193 242.947,279.267 243.126 C 279.428 243.522,288.994 248.800,289.550 248.800 C 289.766 248.800,290.181 249.036,290.471 249.324 C 290.762 249.612,291.540 250.127,292.200 250.470 C 292.860 250.812,295.053 252.016,297.074 253.146 C 299.094 254.276,300.927 255.200,301.145 255.200 C 301.364 255.200,301.781 255.436,302.071 255.724 C 302.362 256.012,303.140 256.527,303.800 256.870 C 304.460 257.212,306.620 258.393,308.600 259.495 C 310.580 260.597,312.605 261.624,313.100 261.776 C 313.595 261.929,314.000 262.210,314.000 262.400 C 314.000 262.590,314.405 262.872,314.900 263.026 C 315.395 263.179,316.250 263.616,316.800 263.996 C 317.350 264.377,319.420 265.527,321.400 266.553 C 323.380 267.579,325.405 268.709,325.900 269.065 L 326.800 269.712 326.800 292.866 L 326.800 316.020 325.875 316.372 C 325.366 316.565,323.431 317.575,321.575 318.617 C 319.719 319.658,317.660 320.790,317.000 321.131 C 316.340 321.473,315.562 321.988,315.271 322.276 C 314.981 322.564,314.564 322.800,314.345 322.800 C 314.127 322.800,312.294 323.724,310.274 324.854 C 308.253 325.984,306.060 327.188,305.400 327.530 C 304.740 327.873,303.962 328.388,303.671 328.676 C 303.381 328.964,302.964 329.200,302.745 329.200 C 302.527 329.200,300.694 330.124,298.674 331.254 C 296.653 332.384,294.460 333.588,293.800 333.930 C 293.140 334.273,292.362 334.788,292.071 335.076 C 291.781 335.364,291.364 335.600,291.145 335.600 C 290.927 335.600,289.094 336.524,287.074 337.654 C 285.053 338.784,282.860 339.988,282.200 340.330 C 281.540 340.673,280.762 341.188,280.471 341.476 C 280.181 341.764,279.764 342.000,279.545 342.000 C 279.327 342.000,277.494 342.924,275.474 344.054 C 273.453 345.184,271.260 346.388,270.600 346.730 C 269.940 347.073,269.162 347.588,268.871 347.876 C 268.581 348.164,268.164 348.400,267.945 348.400 C 267.727 348.400,265.894 349.324,263.874 350.454 C 261.853 351.584,259.660 352.788,259.000 353.130 C 258.340 353.473,257.562 353.988,257.271 354.276 C 256.981 354.564,256.564 354.800,256.345 354.800 C 256.127 354.800,254.294 355.724,252.274 356.854 C 250.253 357.984,248.060 359.188,247.400 359.530 C 246.740 359.873,245.962 360.388,245.671 360.676 C 245.381 360.964,244.964 361.200,244.745 361.200 C 244.527 361.200,242.694 362.124,240.674 363.254 C 238.653 364.384,236.460 365.589,235.800 365.933 C 235.140 366.276,234.420 366.702,234.200 366.880 C 233.980 367.058,232.180 368.038,230.200 369.058 C 228.220 370.078,226.150 371.223,225.600 371.604 C 225.050 371.984,224.195 372.421,223.700 372.574 C 223.205 372.728,222.800 373.022,222.800 373.227 C 222.800 373.432,222.587 373.600,222.327 373.600 C 221.714 373.600,211.442 379.238,211.267 379.671 C 211.193 379.852,210.935 380.000,210.694 380.000 C 210.121 380.000,199.839 385.646,199.673 386.052 C 199.603 386.223,198.433 385.731,197.073 384.959 C 195.713 384.187,193.610 383.071,192.400 382.478 C 191.190 381.885,190.110 381.296,190.000 381.169 C 189.618 380.728,179.344 375.200,178.906 375.200 C 178.665 375.200,178.407 375.052,178.333 374.871 C 178.164 374.453,167.896 368.800,167.306 368.800 C 167.065 368.800,166.807 368.654,166.733 368.476 C 166.564 368.065,157.057 362.800,156.484 362.800 C 156.249 362.800,155.819 362.564,155.529 362.276 C 155.238 361.988,154.460 361.473,153.800 361.130 C 153.140 360.788,150.947 359.584,148.926 358.454 C 146.906 357.324,145.073 356.400,144.855 356.400 C 144.636 356.400,144.219 356.164,143.929 355.876 C 143.638 355.588,142.860 355.073,142.200 354.730 C 141.540 354.388,139.347 353.184,137.326 352.054 C 135.306 350.924,133.473 350.000,133.255 350.000 C 133.036 350.000,132.619 349.764,132.329 349.476 C 132.038 349.188,131.260 348.673,130.600 348.330 C 129.940 347.988,127.747 346.784,125.726 345.654 C 123.706 344.524,121.873 343.600,121.655 343.600 C 121.436 343.600,121.019 343.364,120.729 343.076 C 120.438 342.788,119.660 342.273,119.000 341.930 C 118.340 341.588,116.147 340.384,114.126 339.254 C 112.106 338.124,110.273 337.200,110.055 337.200 C 109.836 337.200,109.419 336.964,109.129 336.676 C 108.838 336.388,108.060 335.873,107.400 335.530 C 106.740 335.188,104.547 333.984,102.526 332.854 C 100.506 331.724,98.673 330.800,98.455 330.800 C 98.236 330.800,97.819 330.564,97.529 330.276 C 97.238 329.988,96.460 329.473,95.800 329.130 C 95.140 328.788,92.947 327.584,90.926 326.454 C 88.906 325.324,87.073 324.400,86.855 324.400 C 86.636 324.400,86.219 324.164,85.929 323.876 C 85.638 323.588,84.860 323.073,84.200 322.730 C 83.540 322.388,81.347 321.184,79.326 320.054 C 77.306 318.924,75.473 318.000,75.255 318.000 C 75.036 318.000,74.619 317.764,74.329 317.476 C 74.038 317.188,73.260 316.673,72.600 316.330 C 71.940 315.988,69.747 314.784,67.726 313.654 C 65.706 312.524,63.873 311.600,63.655 311.600 C 63.436 311.600,63.019 311.364,62.729 311.076 C 62.438 310.788,61.660 310.273,61.000 309.930 C 60.340 309.588,58.147 308.384,56.126 307.254 C 54.106 306.124,52.273 305.200,52.055 305.200 C 51.836 305.200,51.419 304.964,51.129 304.676 C 50.838 304.388,50.060 303.873,49.400 303.530 C 47.571 302.582,40.679 298.811,40.000 298.387 C 39.670 298.180,38.770 297.674,38.000 297.262 C 35.005 295.659,28.970 292.343,28.400 291.987 C 28.070 291.780,27.170 291.274,26.400 290.862 C 23.405 289.259,17.370 285.943,16.800 285.587 C 16.470 285.380,15.570 284.874,14.800 284.461 C 14.030 284.048,12.094 282.979,10.498 282.085 L 7.596 280.459 7.698 316.066 L 7.800 351.674 11.200 353.436 C 13.070 354.405,14.780 355.343,15.000 355.521 C 15.220 355.698,15.940 356.124,16.600 356.467 C 17.260 356.811,19.453 358.016,21.474 359.146 C 23.494 360.276,25.327 361.200,25.545 361.200 C 25.764 361.200,26.181 361.436,26.471 361.724 C 26.762 362.012,27.540 362.527,28.200 362.870 C 28.860 363.212,31.053 364.416,33.074 365.546 C 35.094 366.676,36.927 367.600,37.145 367.600 C 37.364 367.600,37.781 367.836,38.071 368.124 C 38.362 368.412,39.140 368.927,39.800 369.270 C 40.460 369.612,42.653 370.816,44.674 371.946 C 46.694 373.076,48.527 374.000,48.745 374.000 C 48.964 374.000,49.381 374.236,49.671 374.524 C 49.962 374.812,50.740 375.327,51.400 375.670 C 52.060 376.012,54.253 377.216,56.274 378.346 C 58.294 379.476,60.127 380.400,60.345 380.400 C 60.564 380.400,60.981 380.636,61.271 380.924 C 61.562 381.212,62.340 381.727,63.000 382.070 C 63.660 382.412,65.853 383.616,67.874 384.746 C 69.894 385.876,71.727 386.800,71.945 386.800 C 72.164 386.800,72.581 387.036,72.871 387.324 C 73.162 387.612,73.940 388.127,74.600 388.470 C 75.260 388.812,77.453 390.016,79.474 391.146 C 81.494 392.276,83.327 393.200,83.545 393.200 C 83.764 393.200,84.181 393.436,84.471 393.724 C 84.762 394.012,85.540 394.527,86.200 394.870 C 86.860 395.212,89.053 396.416,91.074 397.546 C 93.094 398.676,94.927 399.600,95.145 399.600 C 95.364 399.600,95.781 399.836,96.071 400.124 C 96.362 400.412,97.140 400.927,97.800 401.270 C 98.460 401.612,100.653 402.816,102.674 403.946 C 104.694 405.076,106.527 406.000,106.745 406.000 C 106.964 406.000,107.381 406.236,107.671 406.524 C 107.962 406.812,108.740 407.327,109.400 407.670 C 110.060 408.012,112.253 409.216,114.274 410.346 C 116.294 411.476,118.127 412.400,118.345 412.400 C 118.564 412.400,118.981 412.636,119.271 412.924 C 119.562 413.212,120.340 413.727,121.000 414.070 C 121.660 414.412,123.853 415.616,125.874 416.746 C 127.894 417.876,129.727 418.800,129.945 418.800 C 130.164 418.800,130.581 419.036,130.871 419.324 C 131.162 419.612,131.940 420.127,132.600 420.470 C 133.260 420.812,135.453 422.016,137.474 423.146 C 139.494 424.276,141.327 425.200,141.545 425.200 C 141.764 425.200,142.181 425.436,142.471 425.724 C 142.762 426.012,143.540 426.527,144.200 426.870 C 144.860 427.212,147.053 428.416,149.074 429.546 C 151.094 430.676,152.927 431.600,153.145 431.600 C 153.364 431.600,153.781 431.836,154.071 432.124 C 154.362 432.412,155.140 432.927,155.800 433.270 C 156.460 433.612,158.653 434.816,160.674 435.946 C 162.694 437.076,164.527 438.000,164.745 438.000 C 164.964 438.000,165.381 438.236,165.671 438.524 C 165.962 438.812,166.740 439.327,167.400 439.670 C 168.060 440.012,170.253 441.216,172.274 442.346 C 174.294 443.476,176.127 444.400,176.345 444.400 C 176.564 444.400,176.981 444.636,177.271 444.924 C 177.562 445.212,178.340 445.727,179.000 446.070 C 179.660 446.412,181.853 447.616,183.874 448.746 C 185.894 449.876,187.727 450.800,187.945 450.800 C 188.164 450.800,188.581 451.036,188.871 451.324 C 189.162 451.612,189.940 452.128,190.600 452.471 C 191.260 452.813,193.150 453.854,194.800 454.784 C 199.116 457.215,199.375 457.289,200.427 456.377 C 200.919 455.950,201.487 455.600,201.687 455.600 C 201.888 455.600,203.706 454.676,205.726 453.546 C 207.747 452.416,209.940 451.211,210.600 450.867 C 211.260 450.524,211.980 450.098,212.200 449.920 C 212.420 449.742,214.220 448.762,216.200 447.742 C 218.180 446.722,220.250 445.577,220.800 445.196 C 221.350 444.816,222.205 444.379,222.700 444.226 C 223.195 444.072,223.600 443.778,223.600 443.573 C 223.600 443.368,223.813 443.200,224.073 443.200 C 224.686 443.200,234.958 437.562,235.133 437.129 C 235.207 436.948,235.465 436.800,235.706 436.800 C 236.296 436.800,246.564 431.147,246.733 430.729 C 246.807 430.548,247.065 430.400,247.306 430.400 C 247.896 430.400,258.164 424.747,258.333 424.329 C 258.407 424.148,258.665 424.000,258.906 424.000 C 259.496 424.000,269.764 418.347,269.933 417.929 C 270.007 417.748,270.265 417.600,270.506 417.600 C 271.096 417.600,281.364 411.947,281.533 411.529 C 281.607 411.348,281.865 411.200,282.106 411.200 C 282.696 411.200,292.964 405.547,293.133 405.129 C 293.207 404.948,293.465 404.800,293.706 404.800 C 294.296 404.800,304.564 399.147,304.733 398.729 C 304.807 398.548,305.065 398.400,305.306 398.400 C 305.896 398.400,316.164 392.747,316.333 392.329 C 316.407 392.148,316.665 392.000,316.906 392.000 C 317.496 392.000,327.764 386.347,327.933 385.929 C 328.007 385.748,328.265 385.600,328.506 385.600 C 328.953 385.600,339.233 380.061,339.600 379.623 C 339.710 379.491,340.304 379.162,340.919 378.892 C 341.534 378.621,345.314 376.573,349.319 374.340 C 353.324 372.108,357.230 369.945,358.000 369.535 C 358.770 369.124,359.670 368.620,360.000 368.413 C 360.570 368.057,366.605 364.741,369.600 363.138 C 370.370 362.726,371.270 362.220,371.600 362.013 C 372.147 361.671,377.786 358.570,381.200 356.734 C 381.970 356.320,384.400 355.009,386.600 353.821 L 390.600 351.661 390.701 292.709 L 390.803 233.758 387.701 232.183 C 385.996 231.316,384.510 230.502,384.400 230.372 C 384.290 230.243,383.660 229.861,383.000 229.523 C 382.340 229.185,380.147 227.984,378.126 226.854 C 376.106 225.724,374.273 224.800,374.055 224.800 C 373.836 224.800,373.419 224.564,373.129 224.276 C 372.838 223.988,372.060 223.473,371.400 223.130 C 370.740 222.788,368.547 221.584,366.526 220.454 C 364.506 219.324,362.673 218.400,362.455 218.400 C 362.236 218.400,361.819 218.164,361.529 217.876 C 361.238 217.588,360.460 217.073,359.800 216.730 C 359.140 216.388,356.947 215.184,354.926 214.054 C 352.906 212.924,351.073 212.000,350.855 212.000 C 350.636 212.000,350.219 211.764,349.929 211.476 C 349.638 211.188,348.860 210.673,348.200 210.330 C 347.540 209.988,345.347 208.784,343.326 207.654 C 341.306 206.524,339.473 205.600,339.255 205.600 C 339.036 205.600,338.619 205.364,338.329 205.076 C 338.038 204.788,337.260 204.273,336.600 203.930 C 335.940 203.588,333.747 202.384,331.726 201.254 C 329.706 200.124,327.873 199.200,327.655 199.200 C 327.436 199.200,327.019 198.964,326.729 198.676 C 326.438 198.388,325.660 197.873,325.000 197.530 C 324.340 197.188,322.147 195.984,320.126 194.854 C 318.106 193.724,316.273 192.800,316.055 192.800 C 315.836 192.800,315.419 192.564,315.129 192.276 C 314.838 191.988,314.060 191.473,313.400 191.130 C 312.740 190.788,310.547 189.584,308.526 188.454 C 306.506 187.324,304.673 186.400,304.455 186.400 C 304.236 186.400,303.819 186.164,303.529 185.876 C 303.238 185.588,302.460 185.073,301.800 184.730 C 301.140 184.388,298.947 183.184,296.926 182.054 C 294.906 180.924,293.073 180.000,292.855 180.000 C 292.636 180.000,292.219 179.764,291.929 179.476 C 291.638 179.188,290.860 178.673,290.200 178.330 C 289.540 177.988,287.347 176.784,285.326 175.654 C 283.306 174.524,281.473 173.600,281.255 173.600 C 281.036 173.600,280.619 173.364,280.329 173.076 C 280.038 172.788,279.260 172.273,278.600 171.930 C 277.940 171.588,275.747 170.384,273.726 169.254 C 271.706 168.124,269.873 167.200,269.655 167.200 C 269.436 167.200,269.019 166.964,268.729 166.676 C 268.438 166.388,267.660 165.873,267.000 165.530 C 266.340 165.188,264.147 163.984,262.126 162.854 C 260.106 161.724,258.273 160.800,258.055 160.800 C 257.836 160.800,257.419 160.564,257.129 160.276 C 256.838 159.988,256.060 159.473,255.400 159.130 C 254.740 158.788,252.547 157.584,250.526 156.454 C 248.506 155.324,246.673 154.400,246.455 154.400 C 246.236 154.400,245.819 154.164,245.529 153.876 C 245.238 153.588,244.460 153.073,243.800 152.730 C 241.971 151.782,235.079 148.011,234.400 147.587 C 234.070 147.380,233.170 146.874,232.400 146.462 C 229.405 144.859,223.370 141.543,222.800 141.187 C 222.470 140.980,221.570 140.474,220.800 140.062 C 217.805 138.459,211.770 135.143,211.200 134.787 C 210.870 134.580,209.970 134.074,209.200 133.662 C 208.430 133.250,206.180 132.010,204.200 130.907 C 199.138 128.086,199.531 128.106,194.982 130.447 " stroke="none" fill="#e98c46" fill-rule="evenodd"></path></g></svg>